<?xml version="1.0" encoding="UTF-8"?>
<svg width="165px" height="150px" viewBox="0 0 165 150" version="1.1" xmlns="http://www.w3.org/2000/svg" xmlns:xlink="http://www.w3.org/1999/xlink">
    <!-- Generator: Sketch 47 (45396) - http://www.bohemiancoding.com/sketch -->
    <title>Combined Shape</title>
    <desc>Created with Sketch.</desc>
    <defs></defs>
    <g id="Page-1" stroke="none" stroke-width="1" fill="none" fill-rule="evenodd">
        <g id="SignIn" transform="translate(-293.000000, -238.000000)" fill="#478ADF">
            <g id="Group-3" transform="translate(85.000000, 238.000000)">
                <path d="M238,0 L342.0625,0 L342.0625,3.55271368e-15 C358.631042,5.09121799e-16 372.0625,13.4314575 372.0625,30 L372.0625,120 L372.0625,120 C372.0625,136.568542 358.631042,150 342.0625,150 L238,150 C221.431458,150 208,136.568542 208,120 L208,30 L208,30 C208,13.4314575 221.431458,6.59630556e-15 238,3.55271368e-15 L238,0 Z M328.318449,19.6875 L325.965091,19.6875 C317.635149,19.6875 310.28893,23.4609433 305.810358,30.0413646 L290.641526,52.1439678 L275.190415,30.0413646 C270.711843,23.4617265 263.366398,19.6875 255.035682,19.6875 L252.683098,19.6875 C239.718363,19.6875 229.5625,29.0741163 229.5625,41.0585972 L229.5625,110.126393 C229.5625,121.971465 239.596945,131.25 252.406232,131.25 C265.078634,131.25 275.388397,121.774099 275.388397,110.126393 L275.388397,103.789546 C279.556848,107.277906 284.581418,109.093356 290.186013,109.093356 C290.604405,109.08944 290.708809,109.093356 290.813214,109.093356 C296.417809,109.093356 301.442378,107.277906 305.611603,103.789546 L305.611603,110.126393 C305.611603,121.774099 315.920593,131.25 328.593768,131.25 C341.402282,131.25 351.4375,121.971465 351.4375,110.126393 L351.4375,41.0585972 C351.438273,29.0748995 341.283183,19.6875 328.318449,19.6875 Z" id="Combined-Shape"></path>
            </g>
        </g>
    </g>
</svg>
