<?xml version="1.0" encoding="UTF-8"?>
<svg width="573px" height="627px" viewBox="0 0 573 627" version="1.1" xmlns="http://www.w3.org/2000/svg" xmlns:xlink="http://www.w3.org/1999/xlink">
    <!-- Generator: Sketch 47 (45396) - http://www.bohemiancoding.com/sketch -->
    <title>RGB illustration-01</title>
    <desc>Created with Sketch.</desc>
    <defs>
        <path d="M218.536842,13.0295918 C217.842105,10.8387755 209.505263,12.6836735 209.505263,12.6836735 C209.505263,12.6836735 215.063158,6.91836735 213.905263,4.95816327 C212.052632,2.0755102 200.126316,5.65 200.126316,5.65 C178.010526,-4.38163265 145.010526,2.30612245 145.010526,2.30612245 C90.0105263,18.3336735 91.5157895,52.8102041 90.5894737,78.8693878 C79.8210526,68.8377551 70.2105263,65.4938776 63.0315789,64.4561224 C53.4210526,63.072449 44.5052632,69.7602041 27.8315789,64.2255102 C15.2105263,60.0744898 15.7894737,59.9591837 13.0105263,55.0010204 C10.6947368,50.85 12.0842105,45.8918367 9.42105263,41.0489796 C8.26315789,38.9734694 5.6,38.8581633 3.74736842,39.4346939 C0.0421052632,40.472449 -1.69473684,51.0806122 2.70526316,60.4204082 C6.75789474,69.0683673 15.4421053,72.4122449 22.1578947,74.7183673 C39.4105263,80.944898 47.9789474,74.8336735 62.3368421,77.7163265 C69.6315789,79.2153061 79.1263158,83.0204082 89.3157895,93.3979592 C86.4210526,120.14898 138.063158,111.385714 138.063158,111.385714 C149.178947,113.345918 145.126316,101.008163 145.126316,101.008163 C146.747368,93.6285714 138.063158,93.6285714 138.063158,93.6285714 C140.378947,93.6285714 142.810526,73.2193878 142.810526,73.2193878 C142.810526,63.5336735 150.221053,65.4938776 150.221053,65.4938776 C157.631579,96.05 158.789474,92.8214286 163.421053,101.008163 C164.578947,103.19898 164.810526,107.465306 166.663158,107.465306 C173.494737,107.695918 168.631579,102.161224 168.631579,102.161224 L165.968421,97.7795918 C160.294737,82.4438776 165.968421,66.0704082 165.968421,66.0704082 C166.315789,65.7244898 166.663158,65.2632653 167.010526,64.9173469 C170.831579,65.1479592 175.926316,62.15 175.926316,62.15 C182.410526,57.422449 202.557895,47.1602041 202.557895,47.1602041 C208.347368,44.8540816 208.347368,44.8540816 208.347368,44.8540816 C207.536842,40.3571429 200.821053,41.394898 200.821053,41.394898 C194.105263,41.7408163 183.336842,45.4306122 176.505263,47.9673469 C179.168421,38.627551 177.2,31.9397959 177.2,31.9397959 C177.894737,25.9438776 192.484211,37.4744898 192.484211,37.4744898 C203.831579,44.5081633 206.610526,32.5163265 206.610526,32.5163265 C212.631579,28.1346939 209.968421,19.1408163 209.968421,19.1408163 C209.968421,19.1408163 219.347368,15.6816327 218.536842,13.0295918 Z" id="path-1"></path>
    </defs>
    <g id="Welcome" stroke="none" stroke-width="1" fill="none" fill-rule="evenodd">
        <g id="Desktop-HD" transform="translate(-148.000000, -1565.000000)">
            <g id="Group-6" transform="translate(-3.000000, 1503.000000)">
                <g id="RGB-illustration-01" transform="translate(437.000000, 376.000000) scale(-1, 1) translate(-437.000000, -376.000000) translate(151.000000, 63.000000)">
                    <path d="M213.144331,85 C213.144331,85 212.623295,93.7132353 213.56116,94.7058824 C214.186404,95.3676471 217,94.7058824 217,94.7058824" id="Shape" stroke="#F9E2C5" stroke-width="2" stroke-linecap="round" stroke-linejoin="round"></path>
                    <path d="M395.784087,229.885046 C397.303027,241.751743 398.821966,253.848862 397.770392,265.715559 C396.718819,278.273519 396.01777,290.025006 394.265148,302.467756 C392.746209,313.182346 389.591489,324.47299 388.306233,335.302791 C386.319928,352.008335 381.062062,368.253037 373,383 C390.876745,379.313259 389.007282,356.616761 392.395685,340.026428 C401.859844,293.711746 407.351393,244.862431 401.743003,197.856486 C400.925112,190.598215 399.756697,183.339944 396.485136,176.772937 C395.083039,173.892671 388.89044,164.214976 384.91783,166.288768 C381.646269,168.016928 387.722026,182.533469 388.306233,184.837682 C391.928319,199.584646 393.797782,214.792451 395.784087,229.885046 Z" id="Shape" fill="#231F20" fill-rule="nonzero" opacity="0.11"></path>
                    <path d="M425,596.923678 L418.518519,602 C418.518519,602 385.87963,485.013845 378.703704,416.598864 L375,383.372027 C375,383.372027 386.574074,387.756124 390.046296,344.838126 L401.62037,277 L406.828704,290.267661 C406.828704,290.267661 416.087963,301.112531 404.74537,353.375577 C404.74537,353.375577 397.916667,374.373092 399.421296,393.063188 C399.652778,393.178559 414.699074,586.42492 425,596.923678 Z" id="Shape" fill="#231F20" fill-rule="nonzero" opacity="0.11"></path>
                    <g id="Group" transform="translate(183.000000, 58.000000)">
                        <path d="M142.67181,283.769106 L152.252522,296.699187 L168.297329,395.752846 C168.297329,395.752846 167.027596,413.993496 169.336202,431.195122 C171.529377,448.396748 138.51632,356.847154 142.67181,283.769106 Z" id="Shape" fill="#231F20" fill-rule="nonzero" opacity="0.11"></path>
                        <path d="M141.979228,129.069919 C141.979228,129.069919 64.410089,126.414634 22.7397626,84.0455285 C17.0836795,78.2731707 -9.34985163,72.3853659 4.15548961,43.8699187 C4.15548961,43.8699187 6.00237389,48.9495935 5.77151335,57.0308943 C5.54065282,63.495935 6.92581602,64.0731707 10.1578635,67.8829268 C12.2356083,70.3073171 32.0896142,71.8081301 37.6302671,63.7268293 C39.7080119,60.8406504 32.5513353,73.0780488 37.6302671,80.004878 C37.6302671,80.004878 74.9142433,110.598374 148.443323,101.939837 L141.979228,129.069919 Z" id="Shape" stroke="#F9E2C5" stroke-width="2" stroke-linecap="round" stroke-linejoin="round"></path>
                        <path d="M375.379228,47.4487805 C355.294362,35.4422764 333.824332,36.3658537 327.706528,35.7886179 C272.992582,30.9398374 234.092582,55.9918699 212.968843,35.7886179 C207.774481,30.8243902 206.273887,23.7821138 197.962908,18.5869919 C188.843917,12.8146341 170.836795,6.5804878 158.024036,14.6617886 C149.251335,20.203252 145.672997,27.1300813 143.710682,32.902439 C142.325519,36.9430894 146.94273,43.8699187 146.94273,43.8699187 C148.558754,40.7528455 148.789614,40.4065041 150.290208,38.5593496 C153.983976,33.8260163 159.293769,34.2878049 159.293769,34.2878049 C162.641246,46.8715447 172.68368,46.9869919 172.68368,46.9869919 C191.845104,45.8325203 175.454006,60.8406504 175.454006,60.8406504 C166.565875,77.695935 181.57181,81.7365854 181.57181,81.7365854 C176.839169,96.398374 188.613056,103.325203 188.613056,103.325203 L188.035905,105.634146 C191.152522,107.019512 189.99822,106.673171 192.999407,107.827642 C193.461128,106.904065 197.962908,107.596748 198.424629,106.557724 C198.424629,106.557724 204.311573,105.287805 209.505935,113.715447 C269.875964,131.609756 307.967953,101.362602 318.010386,90.8569106 C321.588724,87.0471545 331.862018,74.1170732 346.290801,73.8861789 C357.487537,73.7707317 362.681899,81.5056911 373.186053,78.8504065 C380.919881,76.8878049 388.88457,69.8455285 388.769139,62.5723577 C388.769139,60.6097561 387.961128,54.9528455 375.379228,47.4487805 Z" id="Shape" fill="#FFFFFF" fill-rule="nonzero" opacity="0.7"></path>
                        <path d="M143.364392,212.884553 C143.364392,212.884553 109.427893,265.528455 132.860237,418.726829 C132.860237,418.726829 147.173591,498.61626 154.907418,525.861789 C154.907418,525.861789 168.52819,532.557724 185.95816,523.206504 C185.95816,523.206504 162.987537,425.076423 168.181899,393.905691 C168.181899,393.905691 195.192582,523.668293 207.774481,545.949593 C207.774481,545.949593 228.89822,551.144715 242.518991,539.484553 C242.518991,539.484553 229.12908,491.112195 217.124332,335.604878 C214.700297,304.434146 240.672107,261.718699 219.317507,219.465041" id="Shape" stroke="#F9E2C5" stroke-width="2" stroke-linecap="round" stroke-linejoin="round"></path>
                        <path d="M138.747181,181.36748 C148.674184,193.489431 143.364392,212.884553 143.364392,212.884553 C143.364392,212.884553 144.403264,233.549593 201.194955,212.884553 L199.463501,182.17561 C199.463501,182.17561 134.591691,176.287805 138.747181,181.36748 Z" id="Shape" stroke="#F9E2C5" stroke-width="2" stroke-linecap="round" stroke-linejoin="round"></path>
                        <path d="M146.134718,45.3707317 C144.403264,49.0650407 138.054599,55.299187 138.747181,57.7235772 C139.324332,59.801626 142.902671,61.5333333 144.403264,63.1495935 C144.403264,63.1495935 141.979228,72.7317073 156.523442,80.4666667 C156.523442,80.4666667 157.216024,102.978862 148.558754,102.055285 C145.095846,102.63252 142.210089,131.147967 142.210089,131.147967 L156.292582,144.770732 L181.34095,134.380488 L188.613056,105.634146 C188.613056,105.634146 189.99822,108.058537 188.613056,106.788618" id="Shape" stroke="#F9E2C5" stroke-width="2" stroke-linecap="round" stroke-linejoin="round"></path>
                        <path d="M145.211276,103.44065 C145.211276,103.44065 137.477448,121.912195 126.742433,139.113821 C121.548071,147.426016 117.738872,175.364228 117.738872,185.985366 C117.738872,193.258537 132.744807,203.533333 200.617804,200.41626 C200.617804,200.41626 199.578932,183.445528 199.578932,182.060163 C199.694362,170.053659 196.462315,155.160976 196.462315,155.160976 C196.462315,155.160976 174.876855,156.777236 195.077151,107.134959 L194.153709,105.403252 L186.997033,101.939837 C186.997033,101.939837 185.496439,125.491057 161.948665,128.030894 C161.948665,128.030894 139.093472,134.149593 150.636499,102.978862 L145.211276,103.44065 Z" id="Shape" fill="#599BF0" fill-rule="nonzero"></path>
                        <path d="M193.114837,147.656911 C193.114837,147.656911 199.348071,161.972358 200.271513,188.178862 L201.194955,213 L198.309199,249.943089 C198.309199,249.943089 182.610682,137.843902 193.691988,144.770732" id="Shape" fill="#231F20" fill-rule="nonzero" opacity="0.11"></path>
                        <path d="M201.194955,216.694309 C201.194955,216.694309 200.848665,170.977236 196.462315,155.276423 C196.462315,155.276423 174.415134,152.852033 195.077151,107.250407 C195.077151,107.250407 214.584866,103.094309 217.586053,146.156098 C220.58724,189.217886 220.47181,195.452033 220.47181,195.452033 C220.47181,195.452033 223.242136,219.349593 207.774481,287.23252 C207.774481,287.23252 209.159644,314.708943 192.768546,325.79187 C192.768546,325.79187 189.074777,328.21626 188.035905,325.79187 C188.035905,325.79187 194.38457,307.320325 193.114837,303.510569 C193.114837,303.510569 187.112463,311.822764 188.035905,306.281301 C188.959347,300.62439 193.576558,289.772358 197.501187,283.422764 C197.501187,283.422764 201.194955,229.047154 201.194955,216.694309" id="Shape" stroke="#F9E2C5" stroke-width="2" stroke-linecap="round" stroke-linejoin="round"></path>
                        <path d="M168.297329,393.905691 C168.297329,393.905691 164.488131,380.16748 152.252522,294.274797 C152.252522,294.274797 152.252522,294.274797 144.518694,283.653659" id="Shape" stroke="#F9E2C5" stroke-width="2" stroke-linecap="round" stroke-linejoin="round"></path>
                        <path d="M193.691988,144.770732 L196.462315,155.276423" id="Shape" stroke="#F9E2C5" stroke-width="2" fill="#FBF1CD" fill-rule="nonzero" stroke-linecap="round"></path>
                        <path d="M184.457567,235.512195 C184.457567,235.512195 184.342136,249.712195 198.078338,253.868293" id="Shape" stroke="#F9E2C5" stroke-width="2" stroke-linecap="round"></path>
                        <path d="M226.012463,278.343089 C217.008902,279.843902 220.818101,241.053659 220.818101,241.053659 L226.589614,241.053659" id="Shape" stroke="#F9E2C5" stroke-width="2" stroke-linecap="round" stroke-linejoin="round"></path>
                        <path d="M188.035905,244.747967 L198.078338,244.747967" id="Shape" stroke="#F9E2C5" stroke-width="2"></path>
                        <path d="M37.7456973,63.7268293 C37.7456973,63.7268293 41.7857567,60.6097561 40.7468843,55.8764228 C39.7080119,51.1430894 38.4382789,52.4130081 38.4382789,52.4130081" id="Shape" stroke="#F9E2C5" stroke-width="2" stroke-linecap="round" stroke-linejoin="round"></path>
                        <path d="M24.5866469,72.3853659 L17.8916914,72.3853659 C10.2732938,72.3853659 4.04005935,66.1512195 4.04005935,58.5317073 L4.04005935,14.2 C4.04005935,6.5804878 10.2732938,0.346341463 17.8916914,0.346341463 L24.5866469,0.346341463 C32.2050445,0.346341463 38.4382789,6.5804878 38.4382789,14.2 L38.4382789,58.5317073 C38.4382789,66.1512195 32.2050445,72.3853659 24.5866469,72.3853659 Z" id="Shape" fill="#599BF0" fill-rule="nonzero"></path>
                        <path d="M32.3204748,62.2260163 L10.2732938,62.2260163 C9.00356083,62.2260163 7.96468843,61.1869919 7.96468843,59.9170732 L7.96468843,10.8520325 C7.96468843,9.58211382 9.00356083,8.54308943 10.2732938,8.54308943 L32.3204748,8.54308943 C33.5902077,8.54308943 34.6290801,9.58211382 34.6290801,10.8520325 L34.6290801,59.9170732 C34.6290801,61.1869919 33.5902077,62.2260163 32.3204748,62.2260163 Z" id="Shape" fill="#FCB248" fill-rule="nonzero"></path>
                        <path d="M223.934718,551.606504 C223.934718,551.606504 203.503561,561.765854 203.15727,567.076423 C203.15727,567.076423 209.159644,570.539837 235.593175,560.265041 C235.593175,560.265041 240.787537,559.226016 236.054896,549.297561 L223.934718,551.606504 Z" id="Shape" fill="#FFFFFF" fill-rule="nonzero" opacity="0.7"></path>
                        <path d="M171.529377,535.328455 C171.529377,535.328455 151.09822,545.487805 150.751929,550.798374 C150.751929,550.798374 156.754303,554.261789 183.187834,543.986992 C183.187834,543.986992 188.382196,542.947967 183.649555,533.019512 L171.529377,535.328455 Z" id="Shape" fill="#FFFFFF" fill-rule="nonzero" opacity="0.7"></path>
                        <ellipse id="Oval" fill="#F9E2C5" fill-rule="nonzero" cx="28.972997" cy="27.3609756" rx="1.50059347" ry="1.50081301"></ellipse>
                        <ellipse id="Oval" fill="#F9E2C5" fill-rule="nonzero" cx="13.389911" cy="27.9382114" rx="1.50059347" ry="1.50081301"></ellipse>
                        <path d="M14.8905045,41.099187 C16.1602374,43.4081301 18.4688427,44.7934959 21.1237389,44.9089431 C23.778635,44.9089431 26.3181009,43.5235772 27.5878338,41.099187" id="Shape" stroke="#F9E2C5" stroke-width="2" stroke-linecap="round" stroke-linejoin="round"></path>
                        <ellipse id="Oval" stroke="#F9E2C5" stroke-width="2" stroke-linecap="round" stroke-linejoin="round" cx="28.0495549" cy="4.50243902" rx="1" ry="1"></ellipse>
                    </g>
                    <path d="M261,334 L261,501" id="Shape" stroke="#FFFFFF" stroke-width="2" opacity="0.39" stroke-linecap="round" stroke-linejoin="round"></path>
                    <path d="M230,309 L261,309" id="Shape" stroke="#FFFFFF" stroke-width="2" opacity="0.39" stroke-linecap="round" stroke-linejoin="round"></path>
                    <g id="Group" opacity="0.86">
                        <path d="M139.507965,574.4998 L138.468584,574.846 C136.043363,575.6538 133.387168,574.4998 132.578761,572.0764 L91.0035398,457.4842 C90.1951327,455.0608 91.35,452.4066 93.7752212,451.5988 L94.8146018,451.2526 C97.239823,450.4448 99.8960177,451.5988 100.704425,454.0222 L142.279646,568.6144 C143.088053,570.9224 141.817699,573.5766 139.507965,574.4998 Z" id="Shape" fill="#FFFFFF" fill-rule="nonzero" opacity="0.39"></path>
                        <g transform="translate(11.548673, 3.616000)" id="Shape" fill-rule="nonzero" fill="#231F20" opacity="0.04">
                            <path d="M58.6672566,276.96 C58.6672566,276.96 103.129646,357.2784 90.6570796,440.5972 C90.6570796,440.5972 135.465929,432.5192 126.919912,390.2828 C126.919912,390.2828 86.6150442,267.0356 58.6672566,276.96 Z"></path>
                            <path d="M193.324779,188.2174 C193.324779,188.2174 191.707965,196.2954 190.437611,198.6034 C188.127876,202.6424 180.043805,207.9508 177.503097,211.8744 C173.345575,218.4522 169.30354,241.6476 169.30354,241.6476 L177.156637,251.8028 C177.156637,251.8028 188.012389,252.4952 186.511062,219.9524 L201.40885,207.9508 C201.40885,207.8354 209.954867,206.9122 193.324779,188.2174 Z"></path>
                            <path d="M103.70708,175.2926 L67.6752212,276.2676 C67.6752212,276.2676 81.5336283,289.077 85.6911504,295.3086 C89.8486726,301.5402 81.5336283,289.077 81.5336283,289.077 L120.337168,288.7308 L121.030088,177.716 L103.70708,175.2926 Z"></path>
                            <polyline points="141.471239 90.2428 110.636283 138.5954 141.471239 136.6336"></polyline>
                            <polyline points="69.1765487 77.5488 61.6699115 137.5568 69.1765487 137.5568"></polyline>
                            <polyline points="48.9663717 77.5488 41.4597345 137.5568 48.9663717 137.5568"></polyline>
                            <polyline points="28.5252212 77.5488 20.9030973 137.5568 28.5252212 137.5568"></polyline>
                            <polyline points="8.0840708 77.5488 0.461946903 137.5568 8.0840708 137.5568"></polyline>
                            <path d="M205.912832,298.6552 C205.566372,302.5788 203.949558,306.387 201.177876,309.272 C203.372124,310.3106 205.912832,310.1952 208.10708,309.1566 C210.301327,308.118 212.033628,306.387 213.073009,304.3098 C213.765929,302.925 214.227876,301.4248 214.689823,299.9246 C214.920796,299.3476 215.036283,298.6552 215.036283,297.9628 C215.036283,297.155 214.80531,296.2318 214.45885,295.424 C213.188496,292.3082 209.14646,287.346 205.450885,287.346 C202.563717,287.346 204.065044,288.9616 204.757965,291.1542 C205.681858,293.5776 206.028319,296.1164 205.912832,298.6552 Z"></path>
                            <path d="M223.004867,262.0734 C226.700442,260.9194 230.280531,259.1884 233.514159,256.9958 C234.20708,256.5342 235.015487,255.9572 235.477434,255.1494 C236.054867,254.3416 236.285841,253.303 236.285841,252.2644 C236.401327,250.0718 235.823894,247.8792 234.9,245.802 C233.745133,243.0324 232.012832,240.3782 229.587611,238.7626 C227.85531,237.6086 224.737168,235.993 224.159735,238.878 C223.697788,240.8398 226.238496,244.1864 226.584956,246.2636 C227.739823,251.6874 226.469469,257.6882 223.004867,262.0734 Z"></path>
                            <polygon points="241.367257 326.582 239.750442 497.1432 249.220354 496.5662 249.220354 326.582"></polygon>
                            <path d="M123.917257,20.6566 C121.261062,26.542 118.835841,32.5428 117.911947,39.0052 C117.10354,45.3522 118.027434,52.1608 121.838496,57.4692 C122.877876,58.854 124.032743,60.2388 124.49469,61.8544 C124.956637,63.2392 124.84115,64.7394 124.725664,66.1242 C124.49469,69.4708 124.263717,72.702 124.032743,76.0486 C123.917257,77.7796 123.80177,79.626 124.49469,81.2416 C125.187611,82.8572 127.150885,84.0112 128.767699,83.3188 C133.040708,78.472 136.043363,72.4712 136.85177,66.0088 C137.54469,59.5464 135.812389,52.7378 131.423894,48.0064 C129.576106,45.9292 127.266372,44.3136 125.534071,42.2364 C123.686283,40.1592 122.415929,37.3896 122.993363,34.7354 C123.45531,32.7736 124.725664,31.158 125.996018,29.5424 C130.5,23.8878 139.854425,6.4624 129.576106,1.2694 C128.421239,3.462 128.883186,6.347 128.536726,8.7704 C127.843805,12.9248 125.649558,16.733 123.917257,20.6566 Z"></path>
                            <path d="M107.056195,20.772 C107.171681,22.3876 107.287168,24.1186 108.326549,25.2726 C108.557522,25.5034 108.788496,25.7342 109.134956,25.7342 C109.596903,25.7342 109.827876,25.1572 110.174336,24.811 C111.213717,23.657 113.292478,23.657 114.216372,22.3876 C114.678319,21.6952 114.678319,20.8874 114.678319,20.0796 C114.678319,18.1178 114.562832,16.0406 114.100885,14.1942 C113.407965,11.4246 110.174336,1.3848 107.287168,4.616 C104.861947,7.2702 106.940708,17.4254 107.056195,20.772 Z"></path>
                            <path d="M143.434513,41.3132 C142.510619,43.9674 141.009292,46.3908 140.200885,49.1604 C138.699558,54.815 140.778319,60.8158 140.200885,66.7012 C139.854425,70.1632 138.699558,73.6252 137.082743,76.741 C136.736283,77.5488 136.274336,78.3566 136.389823,79.2798 C136.620796,81.2416 139.507965,81.934 141.124779,80.78 C142.741593,79.626 143.319027,77.4334 143.665487,75.4716 C144.704867,69.7016 144.935841,63.5854 143.55,57.8154 C142.972566,55.392 142.164159,52.6224 143.319027,50.4298 C143.89646,49.3912 144.935841,48.5834 145.859735,47.7756 C148.746903,45.006 150.24823,40.8516 149.90177,36.928 C149.786283,35.3124 145.282301,24.3494 142.85708,27.0036 C142.395133,27.4652 144.24292,33.0044 144.358407,33.9276 C144.473894,36.351 144.24292,39.0052 143.434513,41.3132 Z"></path>
                            <path d="M83.3814159,10.386 C87.8853982,16.0406 91.6964602,29.6578 93.0823009,36.8126 C94.3526549,43.0442 93.0823009,50.199 96.7778761,55.392 C98.9721239,58.5078 102.667699,60.3542 105.09292,63.2392 C108.326549,67.1628 109.134956,72.4712 108.788496,77.5488 C108.557522,80.8954 108.326549,85.396 111.560177,86.55 C113.638938,87.2424 115.948673,85.8576 116.988053,83.8958 C118.027434,81.934 118.14292,79.626 118.14292,77.4334 C118.258407,73.856 118.258407,70.2786 116.75708,67.0474 C113.869912,61.0466 106.363274,58.277 103.70708,52.1608 C102.321239,48.9296 102.436726,45.3522 102.436726,41.7748 C102.205752,32.0812 99.780531,22.1568 94.2371681,14.1942 C90.5415929,8.8858 82.8039823,1.0386 75.8747788,0.577 C65.8274336,-9.99200722e-16 81.3026549,7.7318 83.3814159,10.386 Z"></path>
                        </g>
                        <polygon id="Shape" fill="#231F20" fill-rule="nonzero" opacity="0.04" points="93.6597345 451.5988 140.778319 572.8842 145.397788 572.3072 99.780531 451.7142"></polygon>
                        <path d="M24.829646,84.1652 L39.9584071,84.1652" id="Shape" stroke="#FFFFFF" stroke-width="2" opacity="0.34" stroke-linecap="round"></path>
                        <path d="M2.42522124,145.558 L166.993805,145.558" id="Shape" stroke="#FFFFFF" stroke-width="2" opacity="0.39" stroke-linecap="round"></path>
                        <path d="M2.42522124,151.7896 L166.993805,151.7896" id="Shape" stroke="#FFFFFF" stroke-width="2" opacity="0.39" stroke-linecap="round"></path>
                        <path d="M151.749558,92.7048 C152.788938,92.7048 153.712832,93.628 153.712832,94.6666 L153.712832,139.0956 C153.712832,140.1342 152.788938,141.0574 151.749558,141.0574 L107.287168,141.0574 C106.247788,141.0574 105.323894,140.1342 105.323894,139.0956 L105.323894,94.782 C105.323894,93.7434 106.247788,92.8202 107.287168,92.8202 L151.749558,92.8202 L151.749558,92.7048 Z" id="Shape" stroke="#FFFFFF" stroke-width="2" opacity="0.39" stroke-linecap="round"></path>
                        <path d="M129.576106,86.9348 C131.654867,75.6256 128.998673,70.0864 127.381858,67.7784 C127.035398,67.3168 126.688938,66.8552 126.573451,66.7398 C122.993363,62.1238 118.835841,62.1238 115.717699,56.8154 C112.946018,52.1994 114.909292,49.776 113.754425,41.0056 C113.292478,37.659 112.137611,29.1194 106.940708,20.6952 C105.09292,17.6948 100.935398,11.4632 92.9668142,6.9626 C88.2318584,4.3084 81.3026549,1.885 79.6858407,3.9622 C77.2606195,6.9626 89.6176991,14.6944 92.5048673,28.6578 C95.969469,45.3908 82.4575221,53.815 85.5756637,67.2014 C87.1924779,74.01 93.3132743,82.7804 114.216372,90.3968" id="Shape" stroke="#FFFFFF" stroke-width="2" opacity="0.39" stroke-linecap="round" stroke-linejoin="round"></path>
                        <path d="M140.431858,88.435 C150.24823,73.5484 149.90177,64.6626 147.823009,59.3542 C144.358407,50.1222 134.773009,48.622 134.542035,40.544 C134.195575,32.6968 143.319027,30.9658 145.397788,20.349 C147.476549,9.8476 140.778319,-0.1922 139.507965,0.154 C138.353097,0.3848 141.586726,8.5782 138.006637,16.4254 C134.657522,23.811 127.150885,22.7724 122.184956,29.2348 C120.683628,31.1966 118.258407,35.8126 116.641593,41.4672" id="Shape" stroke="#FFFFFF" stroke-width="2" opacity="0.39" stroke-linecap="round" stroke-linejoin="round"></path>
                        <path d="M126.804425,21.8492 C124.263717,12.9634 119.875221,2.8082 117.680973,3.039 C115.717699,3.2698 110.867257,11.8094 109.596903,20.2336" id="Shape" stroke="#FFFFFF" stroke-width="2" opacity="0.39" stroke-linecap="round" stroke-linejoin="round"></path>
                        <path d="M142.279646,47.3526 C144.011947,36.6204 151.518584,29.8118 154.867699,29.6964 C158.678761,29.6964 163.64469,39.1592 161.334956,45.9678 C159.949115,50.1222 157.061947,49.6606 155.445133,53.815 C152.788938,60.3928 158.332301,65.1242 157.408407,73.0868 C157.061947,76.4334 155.445133,81.1648 149.55531,86.3578" id="Shape" stroke="#FFFFFF" stroke-width="2" opacity="0.39" stroke-linecap="round" stroke-linejoin="round"></path>
                        <path d="M120.683628,86.9348 C105.323894,78.3952 100.704425,69.8556 99.4340708,63.2778 C98.1637168,56.7 100.588938,52.8918 100.935398,44.006 C101.281858,34.8894 100.819912,24.1572 94.0061947,15.3868 C90.5415929,11.0016 86.4995575,8.4628 83.6123894,6.9626" id="Shape" stroke="#FFFFFF" stroke-width="2" opacity="0.39" stroke-linecap="round" stroke-linejoin="round"></path>
                        <path d="M128.074779,64.3164 C121.492035,51.6224 122.300442,44.3522 124.610177,40.0824 C125.649558,38.1206 129.576106,33.62 137.429204,24.7342 C138.815044,23.1186 141.240265,20.4644 141.817699,16.31 C142.279646,13.6558 142.279646,12.848 141.817699,11.3478" id="Shape" stroke="#FFFFFF" stroke-width="2" opacity="0.39" stroke-linecap="round" stroke-linejoin="round"></path>
                        <path d="M116.75708,23.811 C116.295133,19.195 118.258407,14.579 117.79646,9.963" id="Shape" stroke="#FFFFFF" stroke-width="2" opacity="0.39" stroke-linecap="round" stroke-linejoin="round"></path>
                        <path d="M150.363717,57.0462 C151.865044,54.7382 151.980531,53.815 153.135398,51.507 C154.521239,48.8528 153.828319,43.7752 153.135398,41.5826" id="Shape" stroke="#FFFFFF" stroke-width="2" opacity="0.39" stroke-linecap="round" stroke-linejoin="round"></path>
                        <path d="M58.2053097,141.1728 L47.6960177,141.1728 C46.4256637,141.1728 45.3862832,140.1342 45.3862832,138.8648 L45.3862832,81.3956 C45.3862832,80.1262 46.4256637,79.0876 47.6960177,79.0876 L58.2053097,79.0876 C59.4756637,79.0876 60.5150442,80.1262 60.5150442,81.3956 L60.5150442,138.8648 C60.5150442,140.1342 59.4756637,141.1728 58.2053097,141.1728 Z" id="Shape" stroke="#FFFFFF" stroke-width="2" opacity="0.39" stroke-linecap="round"></path>
                        <path d="M78.4154867,141.1728 L67.9061947,141.1728 C66.6358407,141.1728 65.5964602,140.1342 65.5964602,138.8648 L65.5964602,81.3956 C65.5964602,80.1262 66.6358407,79.0876 67.9061947,79.0876 L78.4154867,79.0876 C79.6858407,79.0876 80.7252212,80.1262 80.7252212,81.3956 L80.7252212,138.8648 C80.7252212,140.1342 79.6858407,141.1728 78.4154867,141.1728 Z" id="Shape" stroke="#FFFFFF" stroke-width="2" opacity="0.39" stroke-linecap="round"></path>
                        <path d="M37.6486726,141.1728 L27.1393805,141.1728 C25.8690265,141.1728 24.829646,140.1342 24.829646,138.8648 L24.829646,81.3956 C24.829646,80.1262 25.8690265,79.0876 27.1393805,79.0876 L37.6486726,79.0876 C38.9190265,79.0876 39.9584071,80.1262 39.9584071,81.3956 L39.9584071,138.8648 C39.9584071,140.1342 38.9190265,141.1728 37.6486726,141.1728 Z" id="Shape" stroke="#FFFFFF" stroke-width="2" opacity="0.39" stroke-linecap="round"></path>
                        <path d="M17.3230088,141.1728 L6.69823009,141.1728 C5.42787611,141.1728 4.38849558,140.1342 4.38849558,138.8648 L4.38849558,81.3956 C4.38849558,80.1262 5.42787611,79.0876 6.69823009,79.0876 L17.3230088,79.0876 C18.5933628,79.0876 19.6327434,80.1262 19.6327434,81.3956 L19.6327434,138.8648 C19.6327434,140.1342 18.5933628,141.1728 17.3230088,141.1728 Z" id="Shape" stroke="#FFFFFF" stroke-width="2" opacity="0.39" stroke-linecap="round"></path>
                        <path d="M69.4075221,124.6706 L77.8380531,124.6706" id="Shape" stroke="#FFFFFF" stroke-width="2" opacity="0.39" stroke-linecap="round"></path>
                        <path d="M69.4075221,133.6718 L77.8380531,133.6718" id="Shape" stroke="#FFFFFF" stroke-width="2" opacity="0.39" stroke-linecap="round"></path>
                        <path d="M53.0084071,84.973 L53.0084071,133.6718" id="Shape" stroke="#FFFFFF" stroke-width="2" opacity="0.39" stroke-linecap="round"></path>
                        <path d="M27.4858407,135.6336 L36.2628319,135.6336" id="Shape" stroke="#FFFFFF" stroke-width="2" opacity="0.39" stroke-linecap="round"></path>
                        <path d="M7.16017699,128.1326 L15.3597345,138.2878" id="Shape" stroke="#FFFFFF" stroke-width="2" opacity="0.39" stroke-linecap="round"></path>
                        <path d="M105.901327,308.5028 L170.920354,308.5028" id="Shape" stroke="#FFFFFF" stroke-width="2" opacity="0.39" stroke-linecap="round" stroke-linejoin="round"></path>
                        <path d="M117.219027,330.198 L260.769027,330.198" id="Shape" stroke="#FFFFFF" stroke-width="2" opacity="0.39" stroke-linecap="round" stroke-linejoin="round"></path>
                        <path d="M243.099558,333.4292 L243.099558,500.1822" id="Shape" stroke="#FFFFFF" stroke-width="2" opacity="0.39" stroke-linecap="round" stroke-linejoin="round"></path>
                        <path d="M1.15486726,178.9086 L130.384513,178.9086 C131.654867,178.9086 132.694248,179.9472 132.694248,181.2166 L132.694248,290.2696 C132.694248,291.539 131.654867,292.5776 130.384513,292.5776 L96.7778761,292.5776" id="Shape" stroke="#FFFFFF" stroke-width="2" opacity="0.39" stroke-linecap="round" stroke-linejoin="round"></path>
                        <path d="M1.03938053,184.4478 L123.224336,184.4478 C124.379204,184.4478 125.303097,185.2556 125.303097,186.1788 L125.303097,269.7284 C125.303097,270.6516 124.379204,271.4594 123.224336,271.4594 L1.61681416,271.4594" id="Shape" fill="#FFFFFF" fill-rule="nonzero" opacity="0.39"></path>
                        <path d="M0.230973451,287.6154 C24.829646,270.6516 62.3628319,268.6898 86.2685841,286.346 C89.2712389,288.5386 93.7752212,292.3468 102.321239,308.5028 C105.208407,313.9266 108.442035,320.7352 112.368584,329.2748 C133.964602,377.1658 144.820354,401.169 138.468584,416.5172 C123.80177,452.0604 55.4336283,451.7142 42.0371681,451.7142 C33.7221239,451.7142 18.0159292,451.5988 1.61681416,448.8292" id="Shape" stroke="#FFFFFF" stroke-width="2" opacity="0.39" stroke-linecap="round" stroke-linejoin="round"></path>
                        <g opacity="0.39" transform="translate(147.823009, 189.410000)" id="Shape">
                            <g stroke="#FFFFFF" stroke-width="2" stroke-linecap="round" stroke-linejoin="round">
                                <path d="M81.0716814,53.5456 C82.4575221,53.3148 83.6123894,52.3916 84.9982301,51.93 C90.4261062,50.3144 96.2004425,52.7378 98.8566372,57.8154 C102.090265,64.1624 99.4340708,71.8942 92.5048673,74.433 C88.5783186,75.9332 84.7672566,75.2408 81.1871681,72.9328 C79.6858407,71.8942 78.8774336,70.5094 77.9535398,69.1246 C77.1451327,67.8552 76.6831858,66.355 76.5676991,64.7394 C76.1057522,60.9312 77.2606195,57.8154 79.8013274,55.0458 C80.2632743,54.6996 80.7252212,54.238 81.0716814,53.5456"></path>
                                <path d="M9.12345133,23.657 C6.46725664,20.0796 3.81106195,16.5022 1.15486726,12.9248 C0.346460177,11.8862 0.461946903,11.1938 1.50132743,10.6168 C1.84778761,10.386 2.30973451,10.1552 2.77168142,10.0398 C5.88982301,8.7704 9.0079646,7.8472 12.3570796,7.501 C15.3597345,7.1548 18.3623894,7.1548 21.3650442,7.6164 C25.5225664,8.1934 29.449115,9.4628 33.0292035,11.54 C33.9530973,12.0016 34.6460177,12.0016 35.4544248,11.3092 C39.8429204,7.9626 44.3469027,4.7314 48.6199115,1.3848 C51.1606195,-0.577 54.8561947,-0.3462 56.9349558,2.4234 C59.8221239,6.347 62.709292,10.2706 65.5964602,14.0788 C67.790708,16.9638 67.2132743,20.195 65.0190265,22.0414 C64.0951327,22.8492 62.9402655,23.657 61.900885,24.3494 C60.9769912,25.0418 60.1685841,25.8496 59.1292035,26.542 C56.2420354,28.5038 53.470354,30.6964 50.5831858,32.7736 C50.1212389,33.1198 50.0057522,33.3506 50.1212389,33.9276 C50.3522124,35.5432 50.5831858,37.1588 50.8141593,38.7744 C51.0451327,41.3132 51.0451327,43.852 50.6986726,46.2754 C50.2367257,49.3912 49.4283186,52.507 48.1579646,55.392 C46.5411504,58.9694 44.5778761,62.2006 41.9216814,65.0856 C40.9977876,66.0088 40.5358407,66.0088 39.7274336,64.9702 C38.5725664,63.5854 37.6486726,62.2006 36.609292,60.7004 C35.3389381,58.9694 34.0685841,57.3538 32.9137168,55.6228 C24.9451327,45.1214 17.0920354,34.3892 9.12345133,23.657 Z"></path>
                                <path d="M80.0323009,72.3558 C75.759292,76.8564 71.6017699,81.4724 67.3287611,85.973 C62.709292,91.0506 57.9743363,96.0128 53.2393805,101.0904"></path>
                                <path d="M60.630531,26.0804 C64.6725664,31.5042 68.7146018,36.928 72.7566372,42.3518 C75.1818584,45.583 77.4915929,48.8142 79.9168142,52.0454 C80.2632743,52.507 80.6097345,53.084 80.9561947,53.661"></path>
                            </g>
                            <path d="M32.9137168,55.7382 C21.5960177,63.2392 7.04469027,59.0848 2.07876106,49.2758 C-1.96327434,41.3132 0.577433628,30.1194 9.12345133,23.657" fill="#FFFFFF" fill-rule="nonzero"></path>
                            <path d="M36.2628319,124.1704 L69.1765487,124.1704 C74.2579646,124.1704 78.5309735,120.016 78.5309735,114.823 L78.5309735,110.3224 C78.5309735,105.2448 74.3734513,100.975 69.1765487,100.975 L36.2628319,100.975 C31.1814159,100.975 26.9084071,105.1294 26.9084071,110.3224 L26.9084071,114.823 C26.9084071,120.016 31.1814159,124.1704 36.2628319,124.1704 Z" stroke="#FFFFFF" stroke-width="2" stroke-linecap="round" stroke-linejoin="round"></path>
                        </g>
                        <path d="M147.476549,127.9018 L111.675664,127.9018 C109.134956,127.9018 107.056195,125.8246 107.056195,123.2858 L107.056195,115.7848 C107.056195,113.246 109.134956,111.1688 111.675664,111.1688 L147.476549,111.1688 C150.017257,111.1688 152.096018,113.246 152.096018,115.7848 L152.096018,123.2858 C152.096018,125.8246 150.017257,127.9018 147.476549,127.9018 Z" id="Shape" fill="#FFFFFF" fill-rule="nonzero" opacity="0.39"></path>
                    </g>
                    <g id="Group" transform="translate(97.000000, 504.000000)">
                        <g id="Shape">
                            <mask id="mask-2" fill="white">
                                <use xlink:href="#path-1"></use>
                            </mask>
                            <use id="Mask" fill="#FFFFFF" fill-rule="nonzero" opacity="0.7" xlink:href="#path-1"></use>
                            <path d="M141.652632,64.3408163 C145.936842,60.5357143 151.726316,58.5755102 155.778947,54.5397959 C161.105263,49.2357143 162.726316,41.5102041 165.389474,34.5918367 C168.052632,27.6734694 173.031579,20.4091837 180.557895,19.7173469 C184.726316,19.3714286 189.010526,21.1010204 192.831579,19.7173469 C200.936842,16.95 200.589474,3.92040816 208.347368,0.230612245 C212.747368,-1.84489796 218.305263,0.345918367 221.315789,4.03571429 C224.442105,7.84081633 225.484211,12.7989796 226.063158,17.5265306 C228.263158,38.0510204 220.621053,59.4979592 205.915789,74.0265306 C200.357895,79.4459184 193.873684,84.1734694 190.052632,90.9765306 C183.915789,102.045918 186.115789,116.920408 177.778947,126.37551 C170.021053,135.254082 156.357895,135.715306 144.778947,133.293878 C137.252632,131.679592 129.263158,128.681633 123.705263,123.146939 C115.715789,115.306122 118.610526,112.884694 123.473684,105.159184 C131.694737,92.5908163 129.726316,74.7183673 141.652632,64.3408163 Z" fill="#000000" fill-rule="nonzero" opacity="0.04" mask="url(#mask-2)"></path>
                        </g>
                    </g>
                </g>
            </g>
        </g>
    </g>
</svg>