<?xml version="1.0" encoding="UTF-8"?>
<svg width="52px" height="52px" viewBox="0 0 52 52" version="1.1" xmlns="http://www.w3.org/2000/svg" xmlns:xlink="http://www.w3.org/1999/xlink">
    <!-- Generator: Sketch 47 (45396) - http://www.bohemiancoding.com/sketch -->
    <title>meanwise-logo-icon</title>
    <desc>Created with Sketch.</desc>
    <defs></defs>
    <g id="Welcome" stroke="none" stroke-width="1" fill="none" fill-rule="evenodd">
        <g id="Desktop-HD" transform="translate(-54.000000, -47.000000)" fill="#FFFFFF">
            <path d="M64,47 L96,47 C101.522847,47 106,51.4771525 106,57 L106,89 C106,94.5228475 101.522847,99 96,99 L64,99 C58.4771525,99 54,94.5228475 54,89 L54,57 L54,57 C54,51.4771525 58.4771525,47 64,47 L64,47 Z M91.3606828,57 L90.6848468,57 C88.2926582,57 86.1829748,58.0823546 84.8968209,59.969848 L80.5406434,66.3096423 L80.5406434,66.2871775 L80.5,66.3460353 L80.4595787,66.2871775 L80.4595787,66.3096423 L76.1034012,59.969848 C74.8172473,58.0825792 72.707786,57 70.3153753,57 L69.6397614,57 C65.9165556,57 63,59.6924076 63,63.129973 L63,82.9410158 C63,86.3385938 65.8816867,89 69.5602513,89 C73.199505,89 76.1602576,86.2819825 76.1602576,82.9410158 L76.1602576,81.123388 C77.3573514,82.1239707 78.8003046,82.644705 80.4098293,82.644705 C80.4400343,82.644705 80.4700171,82.6435817 80.4997779,82.6429078 C80.5299829,82.6435817 80.5599657,82.644705 80.5899486,82.644705 C82.1994733,82.644705 83.6424265,82.1239707 84.8397424,81.123388 L84.8397424,82.9410158 C84.8397424,86.2819825 87.8002729,89 91.4397487,89 C95.1180912,89 98,86.3385938 98,82.9410158 L98,63.129973 C98.0002221,59.6926322 95.0838886,57 91.3606828,57 Z" id="meanwise-logo-icon"></path>
        </g>
    </g>
</svg>