<?xml version="1.0" encoding="UTF-8"?>
<svg width="171px" height="52px" viewBox="0 0 171 52" version="1.1" xmlns="http://www.w3.org/2000/svg" xmlns:xlink="http://www.w3.org/1999/xlink">
    <!-- Generator: Sketch 47 (45396) - http://www.bohemiancoding.com/sketch -->
    <title>Group 3</title>
    <desc>Created with Sketch.</desc>
    <defs></defs>
    <g id="Welcome" stroke="none" stroke-width="1" fill="none" fill-rule="evenodd">
        <g id="Desktop-HD" transform="translate(-54.000000, -47.000000)" fill="#FFFFFF">
            <g id="Group-3" transform="translate(54.000000, 47.000000)">
                <path d="M10,0 L42,0 C47.5228475,-1.01453063e-15 52,4.4771525 52,10 L52,42 C52,47.5228475 47.5228475,52 42,52 L10,52 C4.4771525,52 6.76353751e-16,47.5228475 0,42 L0,10 L0,10 C-6.76353751e-16,4.4771525 4.4771525,1.01453063e-15 10,0 L10,0 Z M37.3606828,10 L36.6848468,10 C34.2926582,10 32.1829748,11.0823546 30.8968209,12.969848 L26.5406434,19.3096423 L26.5406434,19.2871775 L26.5,19.3460353 L26.4595787,19.2871775 L26.4595787,19.3096423 L22.1034012,12.969848 C20.8172473,11.0825792 18.707786,10 16.3153753,10 L15.6397614,10 C11.9165556,10 9,12.6924076 9,16.129973 L9,35.9410158 C9,39.3385938 11.8816867,42 15.5602513,42 C19.199505,42 22.1602576,39.2819825 22.1602576,35.9410158 L22.1602576,34.123388 C23.3573514,35.1239707 24.8003046,35.644705 26.4098293,35.644705 C26.4400343,35.644705 26.4700171,35.6435817 26.4997779,35.6429078 C26.5299829,35.6435817 26.5599657,35.644705 26.5899486,35.644705 C28.1994733,35.644705 29.6424265,35.1239707 30.8397424,34.123388 L30.8397424,35.9410158 C30.8397424,39.2819825 33.8002729,42 37.4397487,42 C41.1180912,42 44,39.3385938 44,35.9410158 L44,16.129973 C44.0002221,12.6926322 41.0838886,10 37.3606828,10 Z" id="meanwise-logo-icon"></path>
                <path d="M64,22.2101449 C64,23.1992754 64.7897311,24 65.7652812,24 C66.7408313,24 67.5305623,23.1992754 67.5305623,22.2101449 L67.5305623,16.817029 C67.5305623,15.1213768 68.3435208,14.25 69.6674817,14.25 C70.9914425,14.25 71.7347188,15.1213768 71.7347188,16.817029 L71.7347188,22.2101449 C71.7347188,23.1992754 72.5244499,24 73.5,24 C74.4755501,24 75.2652812,23.1992754 75.2652812,22.2101449 L75.2652812,16.817029 C75.2652812,15.1213768 76.0782396,14.25 77.4022005,14.25 C78.7261614,14.25 79.4694377,15.1213768 79.4694377,16.817029 L79.4694377,22.2101449 C79.4694377,23.1992754 80.2591687,24 81.2347188,24 C82.2102689,24 83,23.1992754 83,22.2101449 L83,15.6394928 C83,12.6014493 81.4205379,11 78.7958435,11 C77.1002445,11 75.799511,11.7065217 74.707824,13.0018116 C74.0574572,11.7300725 72.8264059,11 71.200489,11 C69.4119804,11 68.3435208,11.9655797 67.5305623,13.0253623 L67.5305623,12.884058 C67.5305623,11.8949275 66.7408313,11.0942029 65.7652812,11.0942029 C64.7897311,11.0942029 64,11.8949275 64,12.884058 L64,22.2101449 Z M88,17 L93,17 C92.8034934,15.2105263 91.930131,14 90.5327511,14 C89.1572052,14 88.2620087,15.1842105 88,17 Z M94.6921606,22.4856631 C93.6137667,23.4175627 92.2141491,24 90.4244742,24 C86.7304015,24 84,21.3673835 84,17.546595 L84,17.5 C84,13.9354839 86.500956,11 90.0803059,11 C94.1873805,11 96,14.4247312 96,17.0107527 C96,18.0358423 95.2887189,18.7114695 94.3709369,18.7114695 L87.4646272,18.7114695 C87.8087954,20.3189964 88.9101338,21.1577061 90.4703633,21.1577061 C91.4340344,21.1577061 92.2370937,20.8548387 92.9483748,20.3189964 C93.2007648,20.1326165 93.4302103,20.0394265 93.7973231,20.0394265 C94.5774379,20.0394265 95.1510516,20.6451613 95.1510516,21.437276 C95.1510516,21.9032258 94.9445507,22.2526882 94.6921606,22.4856631 Z M101.105477,24 C98.851927,24 97,22.634058 97,20.1376812 L97,20.0905797 C97,17.3351449 98.9858012,16.0634058 101.819473,16.0634058 C103.024341,16.0634058 103.894523,16.2753623 104.742394,16.5815217 L104.742394,16.3695652 C104.742394,14.8858696 103.872211,14.0615942 102.176471,14.0615942 C101.239351,14.0615942 100.48073,14.2028986 99.8336714,14.4148551 C99.63286,14.4855072 99.4989858,14.509058 99.3427992,14.509058 C98.5618661,14.509058 97.9371197,13.8731884 97.9371197,13.048913 C97.9371197,12.4130435 98.31643,11.8713768 98.851927,11.6594203 C99.9229209,11.2355072 101.083164,11 102.667343,11 C104.51927,11 105.858012,11.5181159 106.705882,12.4130435 C107.598377,13.3550725 108,14.7445652 108,16.4402174 L108,22.1865942 C108,23.1521739 107.263692,23.9057971 106.348884,23.9057971 C105.36714,23.9057971 104.720081,23.1757246 104.720081,22.4221014 L104.720081,22.3985507 C103.894523,23.3641304 102.756592,24 101.105477,24 Z M102.643564,21 C104.049505,21 105,20.1702128 105,19 L105,18.4255319 C104.485149,18.1702128 103.811881,18 103.079208,18 C101.792079,18 101,18.5531915 101,19.5744681 L101,19.6170213 C101,20.4893617 101.673267,21 102.643564,21 Z M111,22.2101449 C111,23.1992754 111.761711,24 112.702648,24 C113.643585,24 114.405295,23.1992754 114.405295,22.2101449 L114.405295,16.817029 C114.405295,15.1213768 115.234216,14.25 116.533605,14.25 C117.832994,14.25 118.594705,15.1213768 118.594705,16.817029 L118.594705,22.2101449 C118.594705,23.1992754 119.356415,24 120.297352,24 C121.238289,24 122,23.1992754 122,22.2101449 L122,15.6865942 C122,12.7898551 120.498982,11 117.922607,11 C116.197556,11 115.189409,11.9655797 114.405295,13.0253623 L114.405295,12.884058 C114.405295,11.8949275 113.643585,11.0942029 112.702648,11.0942029 C111.761711,11.0942029 111,11.8949275 111,12.884058 L111,22.2101449 Z M128.051833,24 L128.165613,24 C129.007585,24 129.713021,23.5063291 130.031606,22.4719711 L131.988622,16.124774 L133.922882,22.4719711 C134.241466,23.5063291 134.946903,24 135.788875,24 L135.902655,24 C136.744627,24 137.450063,23.5063291 137.814159,22.4014467 L140.88622,13.39783 C140.931732,13.2332731 141,12.9041591 141,12.6690778 C141,11.7757685 140.340076,11.0235081 139.384324,11.0235081 C138.474083,11.0235081 137.950695,11.6347197 137.723135,12.3869801 L135.811631,18.8282098 L133.87737,12.4339964 C133.627054,11.5877034 132.989886,11 132.102402,11 L131.897598,11 C131.010114,11 130.372946,11.5877034 130.12263,12.4339964 L128.211125,18.8047016 L126.345133,12.4104882 C126.094817,11.5877034 125.525917,11.0235081 124.661188,11.0235081 C123.637168,11.0235081 123,11.8227848 123,12.6455696 C123,12.9511754 123.091024,13.3037975 123.159292,13.5153707 L126.140329,22.4014467 C126.504425,23.5063291 127.209861,24 128.051833,24 Z M143,8.51034483 C143,9.42068966 143.870588,10 145,10 C146.129412,10 147,9.42068966 147,8.51034483 L147,8.46896552 C147,7.55862069 146.129412,7 145,7 C143.870588,7 143,7.55862069 143,8.46896552 L143,8.51034483 Z M143,22.1970803 C143,23.1934307 143.671053,24 144.5,24 C145.328947,24 146,23.1934307 146,22.1970803 L146,12.8029197 C146,11.8065693 145.328947,11 144.5,11 C143.671053,11 143,11.8065693 143,12.8029197 L143,22.1970803 Z M153.298165,24 C155.958716,24 158,22.732852 158,19.9404332 L158,19.8935018 C158,17.5938628 156.004587,16.7490975 154.284404,16.1624549 C152.954128,15.6931408 151.784404,15.3646209 151.784404,14.6606498 L151.784404,14.6137184 C151.784404,14.1209386 152.220183,13.7454874 153.068807,13.7454874 C153.802752,13.7454874 154.743119,14.0505415 155.729358,14.5433213 C155.958716,14.6606498 156.119266,14.7075812 156.37156,14.7075812 C157.151376,14.7075812 157.770642,14.0974729 157.770642,13.299639 C157.770642,12.6895307 157.449541,12.2202166 156.944954,11.9620939 C155.752294,11.3519856 154.422018,11 153.137615,11 C150.66055,11 148.642202,12.4314079 148.642202,14.9891697 L148.642202,15.0361011 C148.642202,17.4765343 150.591743,18.2978339 152.311927,18.8140794 C153.665138,19.2364621 154.857798,19.4945848 154.857798,20.2689531 L154.857798,20.3158845 C154.857798,20.8790614 154.399083,21.2545126 153.389908,21.2545126 C152.40367,21.2545126 151.233945,20.8790614 150.06422,20.1281588 C149.880734,20.0108303 149.62844,19.9404332 149.376147,19.9404332 C148.59633,19.9404332 148,20.5505415 148,21.3483755 C148,21.9115523 148.298165,22.333935 148.665138,22.5685921 C150.155963,23.5541516 151.784404,24 153.298165,24 Z M163,17 L168,17 C167.803493,15.2105263 166.930131,14 165.532751,14 C164.157205,14 163.262009,15.1842105 163,17 Z M169.692161,22.4856631 C168.613767,23.4175627 167.214149,24 165.424474,24 C161.730402,24 159,21.3673835 159,17.546595 L159,17.5 C159,13.9354839 161.500956,11 165.080306,11 C169.18738,11 171,14.4247312 171,17.0107527 C171,18.0358423 170.288719,18.7114695 169.370937,18.7114695 L162.464627,18.7114695 C162.808795,20.3189964 163.910134,21.1577061 165.470363,21.1577061 C166.434034,21.1577061 167.237094,20.8548387 167.948375,20.3189964 C168.200765,20.1326165 168.43021,20.0394265 168.797323,20.0394265 C169.577438,20.0394265 170.151052,20.6451613 170.151052,21.437276 C170.151052,21.9032258 169.944551,22.2526882 169.692161,22.4856631 Z" id="meanwise-logo-text"></path>
            </g>
        </g>
    </g>
</svg>