<?xml version="1.0" encoding="UTF-8"?>
<svg width="107px" height="17px" viewBox="0 0 107 17" version="1.1" xmlns="http://www.w3.org/2000/svg" xmlns:xlink="http://www.w3.org/1999/xlink">
    <!-- Generator: Sketch 47 (45396) - http://www.bohemiancoding.com/sketch -->
    <title>meanwise-logo-text</title>
    <desc>Created with Sketch.</desc>
    <defs></defs>
    <g id="Welcome" stroke="none" stroke-width="1" fill="none" fill-rule="evenodd">
        <g id="Desktop-HD" transform="translate(-118.000000, -54.000000)" fill="#FFFFFF">
            <path d="M118,69.2101449 C118,70.1992754 118.789731,71 119.765281,71 C120.740831,71 121.530562,70.1992754 121.530562,69.2101449 L121.530562,63.817029 C121.530562,62.1213768 122.343521,61.25 123.667482,61.25 C124.991443,61.25 125.734719,62.1213768 125.734719,63.817029 L125.734719,69.2101449 C125.734719,70.1992754 126.52445,71 127.5,71 C128.47555,71 129.265281,70.1992754 129.265281,69.2101449 L129.265281,63.817029 C129.265281,62.1213768 130.07824,61.25 131.4022,61.25 C132.726161,61.25 133.469438,62.1213768 133.469438,63.817029 L133.469438,69.2101449 C133.469438,70.1992754 134.259169,71 135.234719,71 C136.210269,71 137,70.1992754 137,69.2101449 L137,62.6394928 C137,59.6014493 135.420538,58 132.795844,58 C131.100244,58 129.799511,58.7065217 128.707824,60.0018116 C128.057457,58.7300725 126.826406,58 125.200489,58 C123.41198,58 122.343521,58.9655797 121.530562,60.0253623 L121.530562,59.884058 C121.530562,58.8949275 120.740831,58.0942029 119.765281,58.0942029 C118.789731,58.0942029 118,58.8949275 118,59.884058 L118,69.2101449 Z M142,64 L147,64 C146.803493,62.2105263 145.930131,61 144.532751,61 C143.157205,61 142.262009,62.1842105 142,64 Z M148.692161,69.4856631 C147.613767,70.4175627 146.214149,71 144.424474,71 C140.730402,71 138,68.3673835 138,64.546595 L138,64.5 C138,60.9354839 140.500956,58 144.080306,58 C148.18738,58 150,61.4247312 150,64.0107527 C150,65.0358423 149.288719,65.7114695 148.370937,65.7114695 L141.464627,65.7114695 C141.808795,67.3189964 142.910134,68.1577061 144.470363,68.1577061 C145.434034,68.1577061 146.237094,67.8548387 146.948375,67.3189964 C147.200765,67.1326165 147.43021,67.0394265 147.797323,67.0394265 C148.577438,67.0394265 149.151052,67.6451613 149.151052,68.437276 C149.151052,68.9032258 148.944551,69.2526882 148.692161,69.4856631 Z M155.105477,71 C152.851927,71 151,69.634058 151,67.1376812 L151,67.0905797 C151,64.3351449 152.985801,63.0634058 155.819473,63.0634058 C157.024341,63.0634058 157.894523,63.2753623 158.742394,63.5815217 L158.742394,63.3695652 C158.742394,61.8858696 157.872211,61.0615942 156.176471,61.0615942 C155.239351,61.0615942 154.48073,61.2028986 153.833671,61.4148551 C153.63286,61.4855072 153.498986,61.509058 153.342799,61.509058 C152.561866,61.509058 151.93712,60.8731884 151.93712,60.048913 C151.93712,59.4130435 152.31643,58.8713768 152.851927,58.6594203 C153.922921,58.2355072 155.083164,58 156.667343,58 C158.51927,58 159.858012,58.5181159 160.705882,59.4130435 C161.598377,60.3550725 162,61.7445652 162,63.4402174 L162,69.1865942 C162,70.1521739 161.263692,70.9057971 160.348884,70.9057971 C159.36714,70.9057971 158.720081,70.1757246 158.720081,69.4221014 L158.720081,69.3985507 C157.894523,70.3641304 156.756592,71 155.105477,71 Z M156.643564,68 C158.049505,68 159,67.1702128 159,66 L159,65.4255319 C158.485149,65.1702128 157.811881,65 157.079208,65 C155.792079,65 155,65.5531915 155,66.5744681 L155,66.6170213 C155,67.4893617 155.673267,68 156.643564,68 Z M165,69.2101449 C165,70.1992754 165.761711,71 166.702648,71 C167.643585,71 168.405295,70.1992754 168.405295,69.2101449 L168.405295,63.817029 C168.405295,62.1213768 169.234216,61.25 170.533605,61.25 C171.832994,61.25 172.594705,62.1213768 172.594705,63.817029 L172.594705,69.2101449 C172.594705,70.1992754 173.356415,71 174.297352,71 C175.238289,71 176,70.1992754 176,69.2101449 L176,62.6865942 C176,59.7898551 174.498982,58 171.922607,58 C170.197556,58 169.189409,58.9655797 168.405295,60.0253623 L168.405295,59.884058 C168.405295,58.8949275 167.643585,58.0942029 166.702648,58.0942029 C165.761711,58.0942029 165,58.8949275 165,59.884058 L165,69.2101449 Z M182.051833,71 L182.165613,71 C183.007585,71 183.713021,70.5063291 184.031606,69.4719711 L185.988622,63.124774 L187.922882,69.4719711 C188.241466,70.5063291 188.946903,71 189.788875,71 L189.902655,71 C190.744627,71 191.450063,70.5063291 191.814159,69.4014467 L194.88622,60.39783 C194.931732,60.2332731 195,59.9041591 195,59.6690778 C195,58.7757685 194.340076,58.0235081 193.384324,58.0235081 C192.474083,58.0235081 191.950695,58.6347197 191.723135,59.3869801 L189.811631,65.8282098 L187.87737,59.4339964 C187.627054,58.5877034 186.989886,58 186.102402,58 L185.897598,58 C185.010114,58 184.372946,58.5877034 184.12263,59.4339964 L182.211125,65.8047016 L180.345133,59.4104882 C180.094817,58.5877034 179.525917,58.0235081 178.661188,58.0235081 C177.637168,58.0235081 177,58.8227848 177,59.6455696 C177,59.9511754 177.091024,60.3037975 177.159292,60.5153707 L180.140329,69.4014467 C180.504425,70.5063291 181.209861,71 182.051833,71 Z M197,55.5103448 C197,56.4206897 197.870588,57 199,57 C200.129412,57 201,56.4206897 201,55.5103448 L201,55.4689655 C201,54.5586207 200.129412,54 199,54 C197.870588,54 197,54.5586207 197,55.4689655 L197,55.5103448 Z M197,69.1970803 C197,70.1934307 197.671053,71 198.5,71 C199.328947,71 200,70.1934307 200,69.1970803 L200,59.8029197 C200,58.8065693 199.328947,58 198.5,58 C197.671053,58 197,58.8065693 197,59.8029197 L197,69.1970803 Z M207.298165,71 C209.958716,71 212,69.732852 212,66.9404332 L212,66.8935018 C212,64.5938628 210.004587,63.7490975 208.284404,63.1624549 C206.954128,62.6931408 205.784404,62.3646209 205.784404,61.6606498 L205.784404,61.6137184 C205.784404,61.1209386 206.220183,60.7454874 207.068807,60.7454874 C207.802752,60.7454874 208.743119,61.0505415 209.729358,61.5433213 C209.958716,61.6606498 210.119266,61.7075812 210.37156,61.7075812 C211.151376,61.7075812 211.770642,61.0974729 211.770642,60.299639 C211.770642,59.6895307 211.449541,59.2202166 210.944954,58.9620939 C209.752294,58.3519856 208.422018,58 207.137615,58 C204.66055,58 202.642202,59.4314079 202.642202,61.9891697 L202.642202,62.0361011 C202.642202,64.4765343 204.591743,65.2978339 206.311927,65.8140794 C207.665138,66.2364621 208.857798,66.4945848 208.857798,67.2689531 L208.857798,67.3158845 C208.857798,67.8790614 208.399083,68.2545126 207.389908,68.2545126 C206.40367,68.2545126 205.233945,67.8790614 204.06422,67.1281588 C203.880734,67.0108303 203.62844,66.9404332 203.376147,66.9404332 C202.59633,66.9404332 202,67.5505415 202,68.3483755 C202,68.9115523 202.298165,69.333935 202.665138,69.5685921 C204.155963,70.5541516 205.784404,71 207.298165,71 Z M217,64 L222,64 C221.803493,62.2105263 220.930131,61 219.532751,61 C218.157205,61 217.262009,62.1842105 217,64 Z M223.692161,69.4856631 C222.613767,70.4175627 221.214149,71 219.424474,71 C215.730402,71 213,68.3673835 213,64.546595 L213,64.5 C213,60.9354839 215.500956,58 219.080306,58 C223.18738,58 225,61.4247312 225,64.0107527 C225,65.0358423 224.288719,65.7114695 223.370937,65.7114695 L216.464627,65.7114695 C216.808795,67.3189964 217.910134,68.1577061 219.470363,68.1577061 C220.434034,68.1577061 221.237094,67.8548387 221.948375,67.3189964 C222.200765,67.1326165 222.43021,67.0394265 222.797323,67.0394265 C223.577438,67.0394265 224.151052,67.6451613 224.151052,68.437276 C224.151052,68.9032258 223.944551,69.2526882 223.692161,69.4856631 Z" id="meanwise-logo-text"></path>
        </g>
    </g>
</svg>