<?xml version="1.0" encoding="UTF-8"?>
<svg width="560px" height="478px" viewBox="0 0 560 478" version="1.1" xmlns="http://www.w3.org/2000/svg" xmlns:xlink="http://www.w3.org/1999/xlink">
    <!-- Generator: Sketch 47 (45396) - http://www.bohemiancoding.com/sketch -->
    <title>Group 16</title>
    <desc>Created with Sketch.</desc>
    <defs></defs>
    <g id="Welcome" stroke="none" stroke-width="1" fill="none" fill-rule="evenodd">
        <g id="Desktop-HD" transform="translate(-46.000000, -2389.000000)">
            <g id="Group-16" transform="translate(46.000000, 2389.000000)">
                <g id="RGB-illustration-02">
                    <path d="M195.470588,50.36 L194.647059,48.08 L189.117647,32 L187.470588,32.6 C183.941176,38.12 178.294118,41.36 171.588235,43.76 C166.647059,45.56 161.823529,46.64 157,46.16 C160.176471,48.32 162.882353,51.32 164.882353,54.56 C166.294118,57.08 165.823529,59.48 164.411765,61.16 C165.588235,64.04 166.176471,67.28 166.294118,70.64 C166.411765,73.52 164.411765,75.44 162.058824,76.16 C161.941176,76.28 161.705882,76.52 161.470588,76.64 L162.647059,80 L164.294118,79.4 C167.823529,73.88 173.470588,70.64 180.176471,68.24 C186.764706,65.84 193.235294,64.76 199.352941,66.8 L201,66.2 L195.470588,50.36 Z" id="Shape" stroke="#D5D8F7" stroke-width="2"></path>
                    <path d="M76.5646438,130.714286 L74.4274406,129.761905 L59.1108179,122.857143 L57.6860158,120 C59.2295515,126.428571 58.2796834,137.261905 55.4300792,143.690476 C53.292876,148.571429 50.6807388,152.857143 47,155.952381 C50.7994723,155 54.8364116,155.119048 58.5171504,155.952381 C61.2480211,156.547619 62.6728232,158.571429 62.9102902,160.833333 C65.7598945,162.02381 68.4907652,163.690476 70.9841689,165.952381 C73.121372,167.857143 73.121372,170.714286 72.0527704,172.857143 C72.0527704,173.095238 72.0527704,173.333333 72.0527704,173.571429 L75.2585752,175 L75.9709763,173.452381 C74.4274406,167.02381 76.0897098,160.714286 78.939314,154.166667 C81.7889182,147.738095 85.469657,142.261905 91.2875989,139.047619 L92,137.5 L76.5646438,130.714286 Z" id="Shape" stroke="#D5D8F7" stroke-width="2"></path>
                    <path d="M336.206633,39.9480519 C336.686224,33.2207792 338.244898,27.4545455 341.602041,22.1688312 C341.602041,21.8084416 341.721939,21.4480519 341.721939,21.0876623 C341.961735,19.2857143 342.80102,17.8441558 344,16.8831169 L344,14.4805195 L342.681122,16.0422078 C337.405612,20.0064935 330.331633,19.525974 323.257653,19.4058442 C316.183673,19.2857143 307.191327,18.0844156 302.035714,14 L300.357143,14 L302.635204,21.4480519 C305.153061,21.9285714 307.431122,23.8506494 307.431122,27.0941558 C307.55102,33.1006494 309.229592,41.75 304.07398,46.1948052 C303.47449,46.6753247 302.875,47.0357143 302.27551,47.275974 L297,51 L300.956633,50.3993506 C306.232143,46.4350649 315.82398,45.3538961 322.897959,45.474026 C329.492347,45.5941558 335.487245,46.5551948 340.522959,50.038961 C339.683673,48.3571429 339.204082,46.7954545 338.964286,45.1136364 C337.285714,44.2727273 335.966837,42.5909091 336.206633,39.9480519 Z" id="Shape" stroke="#D5D8F7" stroke-width="2"></path>
                    <path d="M463.88,90.4542773 C467.6,86.4424779 471.56,82.6666667 476.84,81.1327434 C479.36,79.480826 482.12,78.1828909 485,77.120944 C479,76.8849558 473.6,73.9351032 468.44,70.0412979 C463.76,66.5014749 458.48,61.1917404 456.08,56 C456.32,57.4159292 456.56,59.0678466 456.2,60.1297935 C458.96,70.0412979 451.04,75.9410029 442.76,79.9528024 C441.08,81.1327434 439.28,82.0766962 437,82.4306785 C442.64,83.6106195 448.04,85.6165192 453.08,89.5103245 C455.72,91.5162242 458,93.640118 459.92,96 C460.16,95.6460177 460.4,95.2920354 460.76,95.0560472 C461.24,94.7020649 461.72,94.3480826 462.08,93.8761062 C462.44,92.6961652 462.92,91.5162242 463.88,90.4542773 Z" id="Shape" stroke="#D5D8F7" stroke-width="2"></path>
                    <path d="M544.159091,222.482456 C540.074675,217.687135 539.714286,210.853801 539.353896,204.020468 C539.113636,197.187135 538.873377,191.073099 542.597403,185.798246 L543.438312,184 L543.318182,184 C542.957792,185.318713 542.116883,186.637427 540.555195,187.596491 C531.064935,193.230994 516.88961,195.748538 509.801948,185.438596 L508,184.359649 L508.36039,185.438596 C512.444805,190.233918 513.886364,198.146199 514.126623,204.979532 C514.366883,211.812865 513.646104,218.166667 509.922078,223.321637 L510.042208,225 L526.37987,224.280702 L528.662338,224.160819 L545,223.44152 L544.159091,222.482456 Z" id="Shape" stroke="#D5D8F7" stroke-width="2"></path>
                    <path d="M524.519126,341.321513 C518.989071,341.321513 513.098361,340.966903 508.04918,338.484634 C502.398907,335.647754 499.754098,329.973995 499.63388,323.945626 L497.710383,323 L496.989071,324.536643 C498.431694,330.683215 496.748634,336.711584 493.863388,342.858156 C490.978142,349.004728 487.371585,354.205674 481.721311,357.042553 L481,358.579196 L495.786885,365.316785 L497.830601,366.262411 L512.617486,373 L513.338798,371.463357 C511.896175,365.316785 513.579235,359.288416 516.464481,353.141844 C518.628415,348.413712 521.393443,344.276596 525,341.321513 C524.879781,341.20331 524.759563,341.321513 524.519126,341.321513 Z" id="Shape" stroke="#D5D8F7" stroke-width="2"></path>
                    <path d="M426,451.397906 L415.885584,435.02356 L415.528604,432.78534 L412.791762,417 L411.125858,417.235602 C406.842105,421.829843 400.892449,423.950262 394.228833,425.128272 C387.565217,426.306283 381.258581,426.306283 375.665904,423.361257 L374,423.596859 L376.736842,439.382199 L377.093822,441.620419 L374.951945,462 L381.496568,457.170157 C385.78032,452.575916 391.729977,450.455497 398.393593,449.277487 C405.057208,448.099476 410.887872,446.332461 416.361556,449.277487 L426,451.397906 Z" id="Shape" stroke="#D5D8F7" stroke-width="2"></path>
                    <path d="M344.391408,359 L347.016706,343.235294 L347.374702,341 L350,326.411765 L348.329356,327.352941 C342.720764,330.294118 336.396181,328.058824 329.713604,326.882353 C323.031026,325.705882 316.945107,323.823529 312.649165,319.235294 L310.97852,319 L308.353222,334.764706 L307.995227,337 L300,352.647059 L306.921241,351.823529 C312.529833,348.882353 318.854415,349.941176 325.536993,351.117647 C332.21957,352.294118 338.305489,354.176471 342.601432,358.764706 L344.391408,359 Z" id="Shape" stroke="#D5D8F7" stroke-width="2"></path>
                    <path d="M259.374429,434 L270.415525,422.3 L271.958904,420.645455 L283,408.945455 L281.812785,407.763636 C275.520548,407.172727 270.296804,403.627273 265.429224,399.018182 C260.561644,394.409091 256.762557,389.327273 255.812785,383.181818 L254.625571,382 L243.584475,393.7 L242.041096,395.354545 L231,407.054545 L232.187215,408.236364 C238.479452,408.827273 243.703196,412.372727 248.570776,416.981818 C253.438356,421.590909 257.237443,426.672727 258.187215,432.818182 L259.374429,434 Z" id="Shape" stroke="#D5D8F7" stroke-width="2"></path>
                    <path d="M211.04,260.529412 L208.76,260.058824 L192.8,257 L192.44,258.647059 C195.32,264.176471 195.08,270.411765 193.76,277 C192.44,283.588235 190.16,289.470588 185.36,293.470588 L185,295.117647 L187.28,295.588235 C189.08,290.882353 193.16,288.529412 197.84,288.647059 C199.76,287.117647 202.76,286.647059 204.68,288.058824 C207.56,290.176471 210.92,291.470588 213.92,293.235294 C215.36,294.058824 216.32,295.352941 216.68,296.882353 C217.76,297.470588 218.6,298.176471 219.08,299 C216.8,293.705882 217.04,287.823529 218.24,281.705882 C219.56,275.117647 221.84,269.235294 226.64,265.235294 L227,263.588235 L211.04,260.529412 Z" id="Shape" stroke="#D5D8F7" stroke-width="2"></path>
                    <path d="M279.411765,168.042208 L280.235294,184.37987 L280.352941,186.662338 L281.176471,203 L281.176471,203 C285.882353,198.915584 293.647059,197.353896 300.352941,196.993506 C307.058824,196.633117 314.941176,198.915584 320,202.519481 L320,200.957792 L319.176471,184.62013 L319.058824,182.337662 L318.235294,166 L316.588235,166.12013 C311.882353,170.204545 305.764706,171.646104 299.058824,172.006494 C292.352941,172.366883 283.176471,170.685065 278,166.961039 L279.411765,168.042208 Z" id="Shape" stroke="#D5D8F7" stroke-width="2"></path>
                    <path d="M426,226 L409.918919,226.957265 L407.672297,226.957265 L391.591216,226.717949 L391.591216,228.393162 C395.375,233.418803 396.320946,239.760684 396.202703,246.581197 C396.084459,253.401709 394.902027,259.623932 391,264.649573 L391,266.324786 L407.081081,266.564103 L409.327703,266.564103 L425.408784,268 L424.226351,265.128205 C420.442568,260.102564 420.679054,253.760684 420.797297,246.940171 C420.915541,240.119658 420.915541,233.897436 424.817568,228.871795 L426,226 Z" id="Shape" stroke="#D5D8F7" stroke-width="2"></path>
                    <g id="Group" fill-rule="nonzero" fill="#D4D7F9">
                        <path d="M440.271762,448.392537 C441.81741,447.203483 443.125265,446.014428 444.195329,444.587562 C456.322718,429.367662 472.373673,424.135821 476.059448,424.016915 C485.571125,423.660199 495.43949,423.422388 503.643312,417.239303 C519.575372,405.229851 522.785563,382.637811 510.77707,366.704478 C498.768577,350.771144 476.178344,347.560697 460.246285,359.570149 C451.804671,365.991045 449.070064,375.741294 445.978769,385.134826 C444.552017,389.415423 435.397028,401.187065 419.70276,408.440299 C417.324841,409.153731 414.946921,410.342786 412.806794,412.007463 C402.700637,419.617413 400.679406,433.88607 408.288747,443.993035 C415.779193,453.981095 430.165605,456.002488 440.271762,448.392537 Z M473.443737,376.930348 C479.626327,372.293035 488.305732,373.48209 492.942675,379.665174 C497.579618,385.848259 496.390658,394.528358 490.208068,399.165672 C484.025478,403.802985 475.346072,402.61393 470.70913,396.430846 C466.072187,390.247761 467.380042,381.567662 473.443737,376.930348 Z M420.059448,424.968159 C423.745223,422.233333 428.976645,422.946766 431.711253,426.632836 C434.44586,430.318905 433.732484,435.550746 430.046709,438.285572 C426.360934,441.020398 421.129512,440.306965 418.394904,436.620896 C415.660297,432.81592 416.373673,427.702985 420.059448,424.968159 Z" id="Shape"></path>
                        <path d="M419.10828,197.858706 C417.562633,196.907463 415.898089,196.075124 414.11465,195.480597 C395.566879,189.535323 384.985138,176.455721 383.558386,173.007463 C379.872611,164.208458 376.067941,155.052736 367.388535,149.583085 C350.505308,139.000498 328.152866,143.994527 317.571125,160.879104 C306.989384,177.763682 311.983015,200.11791 328.866242,210.700498 C337.783439,216.289055 348.008493,215.337811 357.757962,214.862189 C362.276008,214.624378 376.543524,219.023881 388.908705,231.152239 C390.454352,233.173632 392.475584,234.957214 394.734607,236.38408 C405.435244,243.161692 419.464968,239.832338 426.242038,229.249751 C433.019108,218.667164 429.808917,204.636318 419.10828,197.858706 Z M340.518047,192.270149 C333.978769,188.227363 332.076433,179.547264 336.118896,173.007463 C340.161359,166.467662 348.840764,164.565174 355.380042,168.60796 C361.919321,172.650746 363.821656,181.330846 359.779193,187.870647 C355.73673,194.410448 347.057325,196.312935 340.518047,192.270149 Z M404.36518,225.08806 C400.441614,222.591045 399.37155,217.478109 401.749469,213.673134 C404.127389,209.868159 409.358811,208.679104 413.163482,211.057214 C417.087049,213.554229 418.157113,218.667164 415.779193,222.472139 C413.401274,226.39602 408.288747,227.585075 404.36518,225.08806 Z" id="Shape"></path>
                        <path d="M166.692144,53.1507463 C159.796178,42.5681592 145.647558,39.5955224 135.065817,46.4920398 C133.52017,47.5621891 132.093418,48.7512438 130.904459,50.059204 C117.825902,64.4467662 101.418259,68.6084577 97.7324841,68.4895522 C88.2208068,68.2517413 78.3524416,67.7761194 69.7919321,73.4835821 C53.1464968,84.4228856 48.3906582,106.777114 59.329087,123.542786 C70.2675159,140.189552 92.6199575,144.945771 109.384289,134.006468 C118.301486,128.1801 121.630573,118.548756 125.316348,109.51194 C126.980892,105.350249 136.968153,94.1731343 153.138004,87.9900498 C155.63482,87.3955224 158.012739,86.3253731 160.271762,84.8985075 C170.615711,77.8830846 173.58811,63.7333333 166.692144,53.1507463 Z M89.5286624,129.725871 C75.4989384,129.725871 64.0849257,118.310945 64.0849257,104.2801 C64.0849257,90.2492537 75.4989384,78.8343284 89.5286624,78.8343284 C103.558386,78.8343284 114.972399,90.2492537 114.972399,104.2801 C115.091295,118.310945 103.677282,129.725871 89.5286624,129.725871 Z M147.906582,79.7855721 C139.346072,79.7855721 132.450106,72.8890547 132.450106,64.3278607 C132.450106,55.7666667 139.346072,48.8701493 147.906582,48.8701493 C156.467091,48.8701493 163.363057,55.7666667 163.363057,64.3278607 C163.363057,72.8890547 156.348195,79.7855721 147.906582,79.7855721 Z" id="Shape"></path>
                        <path d="M312.934183,28.0616915 C311.031847,15.5766169 299.380042,7.01542289 286.895966,8.91791045 C284.993631,9.15572139 283.210191,9.75024876 281.545648,10.3447761 C263.592357,18.0736318 247.065817,14.9820896 243.73673,13.3174129 C235.176221,9.15572139 226.377919,4.63731343 216.271762,6.18308458 C196.535032,9.15572139 182.980892,27.7049751 186.072187,47.3243781 C189.044586,67.0626866 207.592357,80.6179104 227.210191,77.5263682 C237.673036,75.8616915 244.687898,68.6084577 251.821656,61.8308458 C255.150743,58.7393035 268.704883,52.6751244 286.063694,53.7452736 C288.56051,54.2208955 291.176221,54.339801 293.791932,53.8641791 C306.276008,52.1995025 314.836518,40.5467662 312.934183,28.0616915 Z M221.622081,64.6845771 C209.494692,64.6845771 199.745223,54.9343284 199.745223,42.8059701 C199.745223,30.6776119 209.494692,20.9273632 221.622081,20.9273632 C233.749469,20.9273632 243.498938,30.6776119 243.498938,42.8059701 C243.498938,54.9343284 233.749469,64.6845771 221.622081,64.6845771 Z M290.938429,43.519403 C284.042463,43.519403 278.454352,37.9308458 278.454352,31.0343284 C278.454352,24.1378109 284.042463,18.5492537 290.938429,18.5492537 C297.834395,18.5492537 303.422505,24.1378109 303.422505,31.0343284 C303.422505,37.9308458 297.834395,43.519403 290.938429,43.519403 Z" id="Shape"></path>
                        <path d="M443.481953,39.3577114 C441.698514,38.7631841 439.915074,38.2875622 438.131635,38.0497512 C418.751592,36.0283582 405.673036,25.3268657 403.651805,22.3542289 C398.18259,14.5064677 392.713376,6.42089552 383.082803,2.85373134 C364.416136,-4.04278607 343.609342,5.46965174 336.713376,24.2567164 C329.81741,42.9248756 339.329087,63.7333333 358.11465,70.6298507 C368.101911,74.3159204 377.732484,71.3432836 387.244161,68.8462687 C391.643312,67.6572139 406.386412,69.0840796 421.010616,78.3587065 C422.912951,80.0233831 425.171975,81.3313433 427.787686,82.2825871 C439.677282,86.6820896 452.755839,80.6179104 457.154989,68.7273632 C461.316348,56.9557214 455.37155,43.7572139 443.481953,39.3577114 Z M370.242038,65.9925373 C353.715499,65.9925373 340.161359,52.5562189 340.161359,35.9094527 C340.161359,19.381592 353.596603,5.82636816 370.242038,5.82636816 C386.887473,5.82636816 400.322718,19.2626866 400.322718,35.9094527 C400.322718,52.5562189 386.887473,65.9925373 370.242038,65.9925373 Z M435.872611,80.1422886 C425.409766,80.1422886 416.968153,71.7 416.968153,61.2363184 C416.968153,50.7726368 425.409766,42.3303483 435.872611,42.3303483 C446.335456,42.3303483 454.77707,50.7726368 454.77707,61.2363184 C454.77707,71.7 446.335456,80.1422886 435.872611,80.1422886 Z" id="Shape"></path>
                        <path d="M545.019108,160.165672 C544.067941,158.500995 542.997877,157.074129 541.690021,155.766169 C528.135881,141.735323 525.044586,125.207463 525.401274,121.521393 C526.233546,112.008955 527.303609,102.258706 522.191083,93.340796 C512.322718,75.980597 490.208068,69.9164179 472.968153,79.7855721 C455.609342,89.6547264 449.545648,111.771144 459.414013,129.012438 C464.645435,138.168159 474.038217,142.210945 482.955414,146.372637 C487.116773,148.275124 497.460722,158.857711 502.692144,175.385572 C503.167728,177.882587 504,180.379602 505.307856,182.757711 C511.609342,193.697015 525.52017,197.50199 536.458599,191.318905 C547.397028,185.016915 551.320594,171.104975 545.019108,160.165672 Z M490.44586,142.448756 C473.205945,142.448756 459.176221,128.41791 459.176221,111.176617 C459.176221,93.9353234 473.205945,79.9044776 490.44586,79.9044776 C507.685775,79.9044776 521.715499,93.9353234 521.715499,111.176617 C521.715499,128.41791 507.804671,142.448756 490.44586,142.448756 Z M525.52017,191.081095 C514.462845,191.081095 505.426752,182.044279 505.426752,170.98607 C505.426752,159.927861 514.462845,150.891045 525.52017,150.891045 C536.577495,150.891045 545.613588,159.927861 545.613588,170.98607 C545.613588,182.044279 536.577495,191.081095 525.52017,191.081095 Z" id="Shape"></path>
                        <path d="M527.065817,215.337811 C507.210191,213.435323 489.613588,228.060697 487.711253,247.91791 C486.760085,258.500498 492.110403,267.061692 496.985138,275.622886 C499.244161,279.546766 501.740977,294.291045 496.509554,310.7 C495.43949,312.959204 494.726115,315.575124 494.488323,318.191045 C493.299363,330.795025 502.573248,341.853234 515.176221,343.042289 C527.779193,344.231343 538.836518,334.956716 540.025478,322.352736 C540.144374,320.450249 540.144374,318.666667 539.906582,316.883085 C536.815287,297.620398 543.711253,282.281592 546.208068,279.427861 C552.390658,272.174627 558.81104,264.683582 559.762208,254.457711 C561.545648,234.838308 547.04034,217.240299 527.065817,215.337811 Z M516.95966,336.145771 C508.042463,336.145771 500.670913,328.892537 500.670913,319.855721 C500.670913,310.818905 507.923567,303.565672 516.95966,303.565672 C525.876858,303.565672 533.248408,310.818905 533.248408,319.855721 C533.248408,328.892537 525.876858,336.145771 516.95966,336.145771 Z M523.498938,273.363682 C510.77707,273.363682 500.433121,263.018905 500.433121,250.29602 C500.433121,237.573134 510.77707,227.228358 523.498938,227.228358 C536.220807,227.228358 546.564756,237.573134 546.564756,250.29602 C546.564756,263.018905 536.220807,273.363682 523.498938,273.363682 Z" id="Shape"></path>
                        <path d="M354.309979,405.229851 C343.847134,403.565174 334.929936,408.559204 326.131635,412.839801 C322.089172,414.861194 307.227176,416.406965 291.057325,410.223881 C288.798301,409.034826 286.301486,408.202488 283.685775,407.726866 C271.201699,405.824378 259.549894,414.385572 257.647558,426.870647 C255.745223,439.355721 264.305732,451.008458 276.789809,452.910945 C278.692144,453.148756 280.475584,453.267662 282.259023,453.148756 C301.639066,451.246269 316.501062,459.09403 319.235669,461.591045 C326.131635,468.130846 333.146497,475.027363 343.37155,476.69204 C363.10828,479.783582 381.537155,466.228358 384.62845,446.49005 C387.600849,426.632836 374.046709,408.202488 354.309979,405.229851 Z M286.301486,431.50796 C285.58811,436.026368 281.307856,439.11791 276.789809,438.404478 C272.271762,437.691045 269.180467,433.410448 269.893843,428.89204 C270.607219,424.373632 274.887473,421.28209 279.40552,421.995522 C283.923567,422.708955 287.014862,426.989552 286.301486,431.50796 Z M348.95966,467.298507 C334.335456,467.298507 322.564756,455.526866 322.564756,440.901493 C322.564756,426.276119 334.335456,414.504478 348.95966,414.504478 C363.583864,414.504478 375.354565,426.276119 375.354565,440.901493 C375.354565,455.526866 363.583864,467.298507 348.95966,467.298507 Z" id="Shape"></path>
                        <path d="M260.976645,360.283582 C257.171975,350.414428 248.373673,345.063682 240.288747,339.59403 C236.484076,337.097015 227.685775,325.087562 225.070064,307.965174 C224.951168,305.468159 224.475584,302.852239 223.524416,300.355224 C219.006369,288.583582 205.690021,282.757214 193.919321,287.394527 C182.14862,291.912935 176.322718,305.230348 180.95966,317.00199 C181.673036,318.785572 182.505308,320.331343 183.575372,321.877114 C194.989384,337.691542 195.583864,354.576119 194.751592,358.143284 C192.492569,367.41791 190.11465,376.930348 193.800425,386.561692 C201.053079,405.110945 221.978769,414.385572 240.526539,407.132338 C258.955414,399.760199 268.110403,378.832836 260.976645,360.283582 Z M201.29087,324.968657 C191.898089,324.968657 184.407643,317.358706 184.407643,308.08408 C184.407643,298.809453 192.016985,291.199502 201.29087,291.199502 C210.564756,291.199502 218.174098,298.809453 218.174098,308.08408 C218.174098,317.358706 210.683652,324.968657 201.29087,324.968657 Z M232.679406,386.323881 C225.545648,389.058706 217.460722,385.610448 214.607219,378.357214 C211.753715,371.10398 215.320594,363.137313 222.573248,360.283582 C229.707006,357.548756 237.791932,360.997015 240.645435,368.250249 C243.380042,375.384577 239.813163,383.470149 232.679406,386.323881 Z" id="Shape"></path>
                        <path d="M432.424628,270.50995 C418.276008,256.479104 395.329087,256.59801 381.299363,270.866667 C373.808917,278.357711 372.619958,288.583582 370.955414,298.214925 C370.242038,302.733333 362.870488,315.575124 348.36518,325.087562 C346.106157,326.157711 343.96603,327.703483 342.063694,329.60597 C333.146497,338.642786 333.265393,353.030348 342.301486,361.948259 C351.33758,370.866169 365.723992,370.747264 374.641189,361.710448 C375.949045,360.402488 377.138004,358.856716 377.970276,357.310945 C387.719745,340.426368 402.819533,332.935323 406.505308,332.340796 C415.898089,330.557214 425.647558,328.892537 432.781316,321.639303 C446.81104,307.370647 446.692144,284.421891 432.424628,270.50995 Z M362.989384,353.030348 C359.779193,356.240796 354.547771,356.359701 351.218684,353.149254 C347.889597,349.938806 347.889597,344.706965 351.099788,341.377612 C354.309979,338.048259 359.541401,338.048259 362.870488,341.258706 C366.199575,344.469154 366.199575,349.8199 362.989384,353.030348 Z M408.645435,318.666667 C396.161359,318.666667 385.936306,308.559701 385.936306,295.955721 C385.936306,283.351741 396.042463,273.244776 408.645435,273.244776 C421.248408,273.244776 431.354565,283.351741 431.354565,295.955721 C431.354565,308.559701 421.248408,318.666667 408.645435,318.666667 Z" id="Shape"></path>
                        <path d="M329.579618,313.31592 C327.796178,302.852239 320.305732,295.955721 313.29087,288.940299 C310.080679,285.729851 303.898089,272.174627 304.611465,254.933333 C305.087049,252.436318 305.087049,249.820398 304.611465,247.204478 C302.471338,234.719403 290.581741,226.39602 278.216561,228.655224 C265.732484,230.795522 257.409766,242.68607 259.66879,255.052239 C260.025478,256.954726 260.501062,258.619403 261.214437,260.28408 C269.299363,278.000995 266.564756,294.647761 265.019108,298.09602 C260.976645,306.776119 256.696391,315.575124 258.47983,325.800995 C261.927813,345.420398 280.59448,358.618905 300.212314,355.170647 C319.830149,351.722388 332.908705,332.935323 329.579618,313.31592 Z M269.537155,250.414925 C269.537155,243.518408 275.125265,237.929851 282.021231,237.929851 C288.917197,237.929851 294.505308,243.518408 294.505308,250.414925 C294.505308,257.311443 288.917197,262.9 282.021231,262.9 C275.125265,262.9 269.537155,257.311443 269.537155,250.414925 Z M296.645435,333.29204 C289.036093,334.6 281.783439,329.487065 280.475584,321.99602 C279.167728,314.38607 284.280255,307.132836 291.770701,305.824876 C299.380042,304.516915 306.632696,309.629851 307.940552,317.120896 C309.367304,324.730846 304.254777,331.98408 296.645435,333.29204 Z" id="Shape"></path>
                        <path d="M284.755839,169.797015 C276.195329,160.522388 261.690021,160.046766 252.416136,168.60796 C250.989384,169.91592 249.919321,171.342786 248.849257,172.769652 C238.386412,189.178607 222.929936,196.075124 219.244161,196.550746 C209.85138,197.858706 199.983015,199.166667 192.492569,206.18209 C177.868365,219.737313 177.154989,242.68607 190.70913,257.192537 C204.26327,271.81791 227.210191,272.531343 241.715499,258.976119 C249.443737,251.722886 251.10828,241.734826 253.248408,232.103483 C254.199575,227.70398 262.046709,215.1 276.908705,206.18209 C279.286624,205.230846 281.426752,203.80398 283.447983,201.901493 C292.95966,193.459204 293.435244,179.071642 284.755839,169.797015 Z M217.22293,255.408955 C204.857749,255.408955 194.870488,245.420896 194.870488,233.054726 C194.870488,220.688557 204.857749,210.700498 217.22293,210.700498 C229.58811,210.700498 239.575372,220.688557 239.575372,233.054726 C239.575372,245.420896 229.58811,255.408955 217.22293,255.408955 Z M275.125265,189.89204 C271.796178,192.983582 266.564756,192.864677 263.354565,189.535323 C260.26327,186.20597 260.382166,180.974129 263.711253,177.763682 C267.04034,174.672139 272.271762,174.791045 275.481953,178.120398 C278.573248,181.449751 278.454352,186.681592 275.125265,189.89204 Z" id="Shape"></path>
                        <path d="M61.1125265,154.101493 C48.985138,150.772139 36.3821656,158.025373 33.0530786,170.272637 C32.5774947,172.056219 32.3397028,173.958706 32.2208068,175.742289 C31.9830149,195.242786 22.5902335,209.154726 19.7367304,211.532836 C12.4840764,217.71592 4.87473461,223.899005 2.14012739,233.887065 C-3.09129512,253.149751 8.32271762,273.006965 27.7027601,278.1199 C46.9639066,283.351741 66.8195329,271.936816 71.9320594,252.555224 C74.6666667,242.329353 70.7430998,232.935821 67.4140127,223.661194 C65.8683652,219.380597 65.8683652,204.517413 73.8343949,189.178607 C75.2611465,187.038308 76.4501062,184.660199 77.163482,182.163184 C80.492569,169.91592 73.2399151,157.31194 61.1125265,154.101493 Z M48.985138,262.543284 C38.522293,269.083085 24.611465,265.872637 18.0721868,255.408955 C11.5329087,244.945274 14.7430998,231.033333 25.2059448,224.493532 C35.6687898,217.953731 49.5796178,221.164179 56.118896,231.627861 C62.6581741,242.210448 59.447983,256.003483 48.985138,262.543284 Z M63.3715499,176.21791 C62.1825902,180.617413 57.6645435,183.233333 53.1464968,182.044279 C48.7473461,180.855224 46.1316348,176.336816 47.3205945,171.818408 C48.5095541,167.418905 53.0276008,164.802985 57.5456476,165.99204 C61.9447983,167.3 64.5605096,171.818408 63.3715499,176.21791 Z" id="Shape"></path>
                    </g>
                </g>
                <text id="24" font-family="ProximaNovaT-Thin, Proxima Nova" font-size="22" font-style="condensed" font-weight="300" fill="#D4D7F9">
                    <tspan x="25.889" y="251">24</tspan>
                </text>
                <text id="28" font-family="ProximaNovaT-Thin, Proxima Nova" font-size="26" font-style="condensed" font-weight="300" fill="#D4D7F9">
                    <tspan x="74.706" y="113">28</tspan>
                </text>
                <text id="14" font-family="ProximaNova-Light, Proxima Nova" font-size="16" font-weight="300" fill="#D4D7F9">
                    <tspan x="141.208" y="70">14</tspan>
                </text>
                <text id="12" font-family="ProximaNova-Light, Proxima Nova" font-size="14" font-weight="300" fill="#D4D7F9">
                    <tspan x="284.77" y="36">12</tspan>
                </text>
                <text id="24" font-family="ProximaNovaT-Thin, Proxima Nova" font-size="22" font-style="condensed" font-weight="300" fill="#D4D7F9">
                    <tspan x="209.889" y="50">24</tspan>
                </text>
                <text id="20" font-family="ProximaNovaT-Thin, Proxima Nova" font-size="20" font-style="condensed" font-weight="300" fill="#D4D7F9">
                    <tspan x="424.68" y="69">20</tspan>
                </text>
                <text id="22" font-family="ProximaNovaT-Thin, Proxima Nova" font-size="20" font-style="condensed" font-weight="300" fill="#D4D7F9">
                    <tspan x="514.46" y="178">22</tspan>
                </text>
                <text id="34" font-family="ProximaNovaT-Thin, Proxima Nova" font-size="32" font-style="condensed" font-weight="300" fill="#D4D7F9">
                    <tspan x="353.62" y="47">34</tspan>
                </text>
                <text id="36" font-family="ProximaNovaT-Thin, Proxima Nova" font-size="34" font-style="condensed" font-weight="300" fill="#D4D7F9">
                    <tspan x="471.664" y="122">36</tspan>
                </text>
                <text id="26" font-family="ProximaNovaT-Thin, Proxima Nova" font-size="26" font-style="condensed" font-weight="300" fill="#D4D7F9">
                    <tspan x="509.498" y="259">26</tspan>
                </text>
                <text id="25" font-family="ProximaNovaT-Thin, Proxima Nova" font-size="26" font-style="condensed" font-weight="300" fill="#D4D7F9">
                    <tspan x="394.537" y="305">25</tspan>
                </text>
                <text id="27" font-family="ProximaNovaT-Thin, Proxima Nova" font-size="24" font-style="condensed" font-weight="300" fill="#D4D7F9">
                    <tspan x="205.208" y="242">27</tspan>
                </text>
                <text id="33" font-family="ProximaNovaT-Thin, Proxima Nova" font-size="30" font-style="condensed" font-weight="300" fill="#D4D7F9">
                    <tspan x="333.57" y="452">33</tspan>
                </text>
                <text id="13" font-family="ProximaNovaT-Thin, Proxima Nova" font-size="16" font-style="condensed" font-weight="300" fill="#D4D7F9">
                    <tspan x="221.536" y="379">13</tspan>
                </text>
                <text id="18" font-family="ProximaNovaT-Thin, Proxima Nova" font-size="20" font-style="condensed" font-weight="300" fill="#D4D7F9">
                    <tspan x="193.12" y="315">18</tspan>
                </text>
                <text id="15" font-family="ProximaNovaT-Thin, Proxima Nova" font-size="16" font-style="condensed" font-weight="300" fill="#D4D7F9">
                    <tspan x="287.692" y="326">15</tspan>
                </text>
                <text id="16" font-family="ProximaNova-Light, Proxima Nova" font-size="16" font-weight="300" fill="#D4D7F9">
                    <tspan x="510.364" y="326">16</tspan>
                </text>
                <text id="2" font-family="ProximaNova-Regular, Proxima Nova" font-size="10" font-weight="normal" fill="#D4D7F9">
                    <tspan x="52.56" y="177">2</tspan>
                </text>
                <text id="2" font-family="ProximaNova-Regular, Proxima Nova" font-size="10" font-weight="normal" fill="#D4D7F9">
                    <tspan x="266.56" y="187">2</tspan>
                </text>
                <text id="2" font-family="ProximaNova-Regular, Proxima Nova" font-size="10" font-weight="normal" fill="#D4D7F9">
                    <tspan x="405.56" y="221">2</tspan>
                </text>
                <text id="2" font-family="ProximaNova-Regular, Proxima Nova" font-size="10" font-weight="normal" fill="#D4D7F9">
                    <tspan x="422.56" y="435">2</tspan>
                </text>
                <text id="2" font-family="ProximaNova-Regular, Proxima Nova" font-size="10" font-weight="normal" fill="#D4D7F9">
                    <tspan x="275.56" y="434">2</tspan>
                </text>
                <text id="2" font-family="ProximaNova-Regular, Proxima Nova" font-size="10" font-weight="normal" fill="#D4D7F9">
                    <tspan x="354.56" y="351">2</tspan>
                </text>
                <text id="13" font-family="ProximaNova-Regular, Proxima Nova" font-size="14" font-weight="normal" fill="#D4D7F9">
                    <tspan x="341.228" y="186">13</tspan>
                </text>
                <text id="14" font-family="ProximaNovaT-Thin, Proxima Nova" font-size="14" font-style="condensed" font-weight="300" fill="#D4D7F9">
                    <tspan x="476.893" y="393">14</tspan>
                </text>
                <text id="14" font-family="ProximaNovaT-Thin, Proxima Nova" font-size="14" font-style="condensed" font-weight="300" fill="#D4D7F9">
                    <tspan x="275.893" y="255">14</tspan>
                </text>
            </g>
        </g>
    </g>
</svg>